<?xml version="1.0" encoding="UTF-8" standalone="no"?>
<!DOCTYPE svg PUBLIC "-//W3C//DTD SVG 1.1//EN"
 "http://www.w3.org/Graphics/SVG/1.1/DTD/svg11.dtd">
<!-- Generated by graphviz version 2.40.1 (20161225.0304)
 -->
<!-- Title: G Pages: 1 -->
<svg width="1718pt" height="338pt"
 viewBox="0.00 0.00 1718.00 337.99" xmlns="http://www.w3.org/2000/svg" xmlns:xlink="http://www.w3.org/1999/xlink">
<g id="graph0" class="graph" transform="scale(1 1) rotate(0) translate(4 333.9931)">
<title>G</title>
<polygon fill="#ffffff" stroke="transparent" points="-4,4 -4,-333.9931 1714,-333.9931 1714,4 -4,4"/>
<!-- 19 -->
<g id="node1" class="node">
<title>19</title>
<ellipse fill="#ff0000" stroke="#000000" cx="1217" cy="-94.4948" rx="19.4965" ry="19.4965"/>
<text text-anchor="middle" x="1217" y="-90.7948" font-family="Times,serif" font-size="14.00" fill="#000000">19</text>
</g>
<!-- 10 -->
<g id="node2" class="node">
<title>10</title>
<ellipse fill="#ff0000" stroke="#000000" cx="639" cy="-19.4983" rx="19.4965" ry="19.4965"/>
<text text-anchor="middle" x="639" y="-15.7983" font-family="Times,serif" font-size="14.00" fill="#000000">10</text>
</g>
<!-- 0 -->
<g id="node3" class="node">
<title>0</title>
<ellipse fill="none" stroke="#000000" cx="819" cy="-167.9931" rx="27" ry="18"/>
<text text-anchor="middle" x="819" y="-164.2931" font-family="Times,serif" font-size="14.00" fill="#000000">0</text>
</g>
<!-- 8 -->
<g id="node4" class="node">
<title>8</title>
<ellipse fill="none" stroke="#000000" cx="675" cy="-94.4948" rx="27" ry="18"/>
<text text-anchor="middle" x="675" y="-90.7948" font-family="Times,serif" font-size="14.00" fill="#000000">8</text>
</g>
<!-- 0&#45;&gt;8 -->
<g id="edge1" class="edge">
<title>0&#45;&gt;8</title>
<path fill="none" stroke="#000000" d="M797.1519,-157.0746C765.901,-141.4562 712.0546,-114.5422 711,-113.9931 709.0022,-112.953 706.9475,-111.8716 704.8804,-110.7752"/>
<polygon fill="#000000" stroke="#000000" points="706.3457,-107.5896 695.8781,-105.9525 703.0401,-113.7599 706.3457,-107.5896"/>
</g>
<!-- 2 -->
<g id="node5" class="node">
<title>2</title>
<ellipse fill="none" stroke="#000000" cx="747" cy="-94.4948" rx="27" ry="18"/>
<text text-anchor="middle" x="747" y="-90.7948" font-family="Times,serif" font-size="14.00" fill="#000000">2</text>
</g>
<!-- 0&#45;&gt;2 -->
<g id="edge2" class="edge">
<title>0&#45;&gt;2</title>
<path fill="none" stroke="#000000" d="M804.0816,-152.7642C793.945,-142.4167 780.3654,-128.5545 768.9944,-116.9469"/>
<polygon fill="#000000" stroke="#000000" points="771.3975,-114.3985 761.8993,-109.7042 766.397,-119.297 771.3975,-114.3985"/>
</g>
<!-- 8&#45;&gt;10 -->
<g id="edge27" class="edge">
<title>8&#45;&gt;10</title>
<path fill="none" stroke="#000000" d="M666.6504,-77.1006C662.306,-68.0502 656.8968,-56.7815 652.0177,-46.6172"/>
<polygon fill="#000000" stroke="#000000" points="655.0372,-44.8195 647.5543,-37.3189 648.7265,-47.8487 655.0372,-44.8195"/>
</g>
<!-- 2&#45;&gt;10 -->
<g id="edge7" class="edge">
<title>2&#45;&gt;10</title>
<path fill="none" stroke="#000000" d="M728.1878,-81.4314C710.2641,-68.985 683.1795,-50.1771 663.561,-36.5537"/>
<polygon fill="#000000" stroke="#000000" points="665.3424,-33.5297 655.1322,-30.7007 661.3497,-39.2793 665.3424,-33.5297"/>
</g>
<!-- 1 -->
<g id="node6" class="node">
<title>1</title>
<ellipse fill="none" stroke="#000000" cx="675" cy="-239.9931" rx="27" ry="18"/>
<text text-anchor="middle" x="675" y="-236.2931" font-family="Times,serif" font-size="14.00" fill="#000000">1</text>
</g>
<!-- 1&#45;&gt;0 -->
<g id="edge6" class="edge">
<title>1&#45;&gt;0</title>
<path fill="none" stroke="#000000" d="M696.8705,-229.0578C721.2222,-216.882 760.762,-197.1121 788.2285,-183.3788"/>
<polygon fill="#000000" stroke="#000000" points="790.0165,-186.398 797.3955,-178.7953 786.886,-180.137 790.0165,-186.398"/>
</g>
<!-- 17 -->
<g id="node7" class="node">
<title>17</title>
<ellipse fill="none" stroke="#000000" cx="1323" cy="-167.9931" rx="27" ry="18"/>
<text text-anchor="middle" x="1323" y="-164.2931" font-family="Times,serif" font-size="14.00" fill="#000000">17</text>
</g>
<!-- 1&#45;&gt;17 -->
<g id="edge3" class="edge">
<title>1&#45;&gt;17</title>
<path fill="none" stroke="#000000" d="M695.3772,-228.0433C700.3392,-225.6348 705.737,-223.4102 711,-221.9931 958.6774,-155.3005 1039.3226,-252.6857 1287,-185.9931 1288.9736,-185.4616 1290.9662,-184.8167 1292.9476,-184.091"/>
<polygon fill="#000000" stroke="#000000" points="1294.8111,-187.1002 1302.6228,-179.9429 1292.0527,-180.6666 1294.8111,-187.1002"/>
</g>
<!-- 9 -->
<g id="node8" class="node">
<title>9</title>
<ellipse fill="none" stroke="#000000" cx="531" cy="-167.9931" rx="27" ry="18"/>
<text text-anchor="middle" x="531" y="-164.2931" font-family="Times,serif" font-size="14.00" fill="#000000">9</text>
</g>
<!-- 1&#45;&gt;9 -->
<g id="edge4" class="edge">
<title>1&#45;&gt;9</title>
<path fill="none" stroke="#000000" d="M653.1295,-229.0578C628.7778,-216.882 589.238,-197.1121 561.7715,-183.3788"/>
<polygon fill="#000000" stroke="#000000" points="563.114,-180.137 552.6045,-178.7953 559.9835,-186.398 563.114,-180.137"/>
</g>
<!-- 3 -->
<g id="node9" class="node">
<title>3</title>
<ellipse fill="none" stroke="#000000" cx="747" cy="-167.9931" rx="27" ry="18"/>
<text text-anchor="middle" x="747" y="-164.2931" font-family="Times,serif" font-size="14.00" fill="#000000">3</text>
</g>
<!-- 1&#45;&gt;3 -->
<g id="edge5" class="edge">
<title>1&#45;&gt;3</title>
<path fill="none" stroke="#000000" d="M690.2693,-224.7237C700.197,-214.7961 713.3153,-201.6778 724.4363,-190.5567"/>
<polygon fill="#000000" stroke="#000000" points="727.1564,-192.7864 731.7527,-183.2404 722.2067,-187.8366 727.1564,-192.7864"/>
</g>
<!-- 17&#45;&gt;19 -->
<g id="edge45" class="edge">
<title>17&#45;&gt;19</title>
<path fill="none" stroke="#000000" d="M1304.0493,-154.8531C1286.6734,-142.805 1260.8301,-124.8857 1241.8141,-111.7004"/>
<polygon fill="#000000" stroke="#000000" points="1243.5659,-108.656 1233.3537,-105.8342 1239.5772,-114.4085 1243.5659,-108.656"/>
</g>
<!-- 9&#45;&gt;8 -->
<g id="edge29" class="edge">
<title>9&#45;&gt;8</title>
<path fill="none" stroke="#000000" d="M552.8481,-157.0746C584.099,-141.4562 637.9454,-114.5422 639,-113.9931 640.9978,-112.953 643.0525,-111.8716 645.1196,-110.7752"/>
<polygon fill="#000000" stroke="#000000" points="646.9599,-113.7599 654.1219,-105.9525 643.6543,-107.5896 646.9599,-113.7599"/>
</g>
<!-- 11 -->
<g id="node10" class="node">
<title>11</title>
<ellipse fill="none" stroke="#000000" cx="531" cy="-94.4948" rx="27" ry="18"/>
<text text-anchor="middle" x="531" y="-90.7948" font-family="Times,serif" font-size="14.00" fill="#000000">11</text>
</g>
<!-- 9&#45;&gt;11 -->
<g id="edge28" class="edge">
<title>9&#45;&gt;11</title>
<path fill="none" stroke="#000000" d="M531,-149.825C531,-141.6976 531,-131.9249 531,-122.8689"/>
<polygon fill="#000000" stroke="#000000" points="534.5001,-122.7086 531,-112.7086 527.5001,-122.7087 534.5001,-122.7086"/>
</g>
<!-- 3&#45;&gt;19 -->
<g id="edge8" class="edge">
<title>3&#45;&gt;19</title>
<path fill="none" stroke="#000000" d="M767.83,-156.1036C772.6825,-153.7538 777.9194,-151.5392 783,-149.9931 859.3101,-126.7703 1102.5064,-104.2988 1187.4097,-96.9755"/>
<polygon fill="#000000" stroke="#000000" points="1187.7442,-100.4597 1197.4095,-96.1201 1187.1476,-93.4852 1187.7442,-100.4597"/>
</g>
<!-- 3&#45;&gt;2 -->
<g id="edge10" class="edge">
<title>3&#45;&gt;2</title>
<path fill="none" stroke="#000000" d="M747,-149.825C747,-141.6976 747,-131.9249 747,-122.8689"/>
<polygon fill="#000000" stroke="#000000" points="750.5001,-122.7086 747,-112.7086 743.5001,-122.7087 750.5001,-122.7086"/>
</g>
<!-- 3&#45;&gt;11 -->
<g id="edge9" class="edge">
<title>3&#45;&gt;11</title>
<path fill="none" stroke="#000000" d="M726.022,-156.5431C721.1771,-154.1705 715.9808,-151.8356 711,-149.9931 649.128,-127.1051 628.4891,-137.8907 567,-113.9931 564.764,-113.1241 562.4919,-112.1453 560.2321,-111.1008"/>
<polygon fill="#000000" stroke="#000000" points="561.6443,-107.8938 551.1351,-106.55 558.5125,-114.1542 561.6443,-107.8938"/>
</g>
<!-- 11&#45;&gt;10 -->
<g id="edge30" class="edge">
<title>11&#45;&gt;10</title>
<path fill="none" stroke="#000000" d="M549.8122,-81.4314C567.7359,-68.985 594.8205,-50.1771 614.439,-36.5537"/>
<polygon fill="#000000" stroke="#000000" points="616.6503,-39.2793 622.8678,-30.7007 612.6576,-33.5297 616.6503,-39.2793"/>
</g>
<!-- 4 -->
<g id="node11" class="node">
<title>4</title>
<ellipse fill="none" stroke="#000000" cx="531" cy="-239.9931" rx="27" ry="18"/>
<text text-anchor="middle" x="531" y="-236.2931" font-family="Times,serif" font-size="14.00" fill="#000000">4</text>
</g>
<!-- 4&#45;&gt;0 -->
<g id="edge13" class="edge">
<title>4&#45;&gt;0</title>
<path fill="none" stroke="#000000" d="M551.8749,-228.2462C556.7251,-225.889 561.9497,-223.6354 567,-221.9931 659.5536,-191.8961 690.4464,-216.09 783,-185.9931 784.8939,-185.3772 786.8123,-184.6754 788.7262,-183.9144"/>
<polygon fill="#000000" stroke="#000000" points="790.4066,-186.9978 798.1251,-179.74 787.5653,-180.6004 790.4066,-186.9978"/>
</g>
<!-- 36 -->
<g id="node12" class="node">
<title>36</title>
<ellipse fill="none" stroke="#000000" cx="243" cy="-167.9931" rx="27" ry="18"/>
<text text-anchor="middle" x="243" y="-164.2931" font-family="Times,serif" font-size="14.00" fill="#000000">36</text>
</g>
<!-- 4&#45;&gt;36 -->
<g id="edge11" class="edge">
<title>4&#45;&gt;36</title>
<path fill="none" stroke="#000000" d="M510.1251,-228.2462C505.2749,-225.889 500.0503,-223.6354 495,-221.9931 402.4464,-191.8961 371.5536,-216.09 279,-185.9931 277.1061,-185.3772 275.1877,-184.6754 273.2738,-183.9144"/>
<polygon fill="#000000" stroke="#000000" points="274.4347,-180.6004 263.8749,-179.74 271.5934,-186.9978 274.4347,-180.6004"/>
</g>
<!-- 12 -->
<g id="node13" class="node">
<title>12</title>
<ellipse fill="none" stroke="#000000" cx="603" cy="-167.9931" rx="27" ry="18"/>
<text text-anchor="middle" x="603" y="-164.2931" font-family="Times,serif" font-size="14.00" fill="#000000">12</text>
</g>
<!-- 4&#45;&gt;12 -->
<g id="edge12" class="edge">
<title>4&#45;&gt;12</title>
<path fill="none" stroke="#000000" d="M546.2693,-224.7237C556.197,-214.7961 569.3153,-201.6778 580.4363,-190.5567"/>
<polygon fill="#000000" stroke="#000000" points="583.1564,-192.7864 587.7527,-183.2404 578.2067,-187.8366 583.1564,-192.7864"/>
</g>
<!-- 6 -->
<g id="node14" class="node">
<title>6</title>
<ellipse fill="none" stroke="#000000" cx="675" cy="-167.9931" rx="27" ry="18"/>
<text text-anchor="middle" x="675" y="-164.2931" font-family="Times,serif" font-size="14.00" fill="#000000">6</text>
</g>
<!-- 4&#45;&gt;6 -->
<g id="edge14" class="edge">
<title>4&#45;&gt;6</title>
<path fill="none" stroke="#000000" d="M552.8705,-229.0578C577.2222,-216.882 616.762,-197.1121 644.2285,-183.3788"/>
<polygon fill="#000000" stroke="#000000" points="646.0165,-186.398 653.3955,-178.7953 642.886,-180.137 646.0165,-186.398"/>
</g>
<!-- 44 -->
<g id="node23" class="node">
<title>44</title>
<ellipse fill="none" stroke="#000000" cx="261" cy="-94.4948" rx="27" ry="18"/>
<text text-anchor="middle" x="261" y="-90.7948" font-family="Times,serif" font-size="14.00" fill="#000000">44</text>
</g>
<!-- 36&#45;&gt;44 -->
<g id="edge105" class="edge">
<title>36&#45;&gt;44</title>
<path fill="none" stroke="#000000" d="M247.3573,-150.2012C249.4203,-141.7773 251.9316,-131.5234 254.2344,-122.1202"/>
<polygon fill="#000000" stroke="#000000" points="257.6412,-122.9231 256.6204,-112.3776 250.8421,-121.258 257.6412,-122.9231"/>
</g>
<!-- 12&#45;&gt;8 -->
<g id="edge32" class="edge">
<title>12&#45;&gt;8</title>
<path fill="none" stroke="#000000" d="M617.9184,-152.7642C628.055,-142.4167 641.6346,-128.5545 653.0056,-116.9469"/>
<polygon fill="#000000" stroke="#000000" points="655.603,-119.297 660.1007,-109.7042 650.6025,-114.3985 655.603,-119.297"/>
</g>
<!-- 14 -->
<g id="node20" class="node">
<title>14</title>
<ellipse fill="none" stroke="#000000" cx="603" cy="-94.4948" rx="27" ry="18"/>
<text text-anchor="middle" x="603" y="-90.7948" font-family="Times,serif" font-size="14.00" fill="#000000">14</text>
</g>
<!-- 12&#45;&gt;14 -->
<g id="edge33" class="edge">
<title>12&#45;&gt;14</title>
<path fill="none" stroke="#000000" d="M603,-149.825C603,-141.6976 603,-131.9249 603,-122.8689"/>
<polygon fill="#000000" stroke="#000000" points="606.5001,-122.7086 603,-112.7086 599.5001,-122.7087 606.5001,-122.7086"/>
</g>
<!-- 12&#45;&gt;44 -->
<g id="edge31" class="edge">
<title>12&#45;&gt;44</title>
<path fill="none" stroke="#000000" d="M582.1402,-156.1993C577.2892,-153.8445 572.0605,-151.6038 567,-149.9931 466.7328,-118.0793 435.9434,-135.7795 333,-113.9931 320.751,-111.4008 307.485,-107.9856 295.717,-104.7387"/>
<polygon fill="#000000" stroke="#000000" points="296.3986,-101.2946 285.8243,-101.9537 294.5017,-108.0327 296.3986,-101.2946"/>
</g>
<!-- 6&#45;&gt;2 -->
<g id="edge22" class="edge">
<title>6&#45;&gt;2</title>
<path fill="none" stroke="#000000" d="M689.9184,-152.7642C700.055,-142.4167 713.6346,-128.5545 725.0056,-116.9469"/>
<polygon fill="#000000" stroke="#000000" points="727.603,-119.297 732.1007,-109.7042 722.6025,-114.3985 727.603,-119.297"/>
</g>
<!-- 6&#45;&gt;14 -->
<g id="edge21" class="edge">
<title>6&#45;&gt;14</title>
<path fill="none" stroke="#000000" d="M660.0816,-152.7642C649.945,-142.4167 636.3654,-128.5545 624.9944,-116.9469"/>
<polygon fill="#000000" stroke="#000000" points="627.3975,-114.3985 617.8993,-109.7042 622.397,-119.297 627.3975,-114.3985"/>
</g>
<!-- 5 -->
<g id="node15" class="node">
<title>5</title>
<ellipse fill="none" stroke="#000000" cx="567" cy="-311.9931" rx="27" ry="18"/>
<text text-anchor="middle" x="567" y="-308.2931" font-family="Times,serif" font-size="14.00" fill="#000000">5</text>
</g>
<!-- 5&#45;&gt;1 -->
<g id="edge18" class="edge">
<title>5&#45;&gt;1</title>
<path fill="none" stroke="#000000" d="M586.3082,-299.1209C603.3555,-287.7561 628.4019,-271.0585 647.5344,-258.3035"/>
<polygon fill="#000000" stroke="#000000" points="649.4799,-261.213 655.8589,-252.7538 645.5969,-255.3887 649.4799,-261.213"/>
</g>
<!-- 5&#45;&gt;4 -->
<g id="edge20" class="edge">
<title>5&#45;&gt;4</title>
<path fill="none" stroke="#000000" d="M558.2854,-294.5639C554.0403,-286.0737 548.8464,-275.6859 544.1337,-266.2605"/>
<polygon fill="#000000" stroke="#000000" points="547.237,-264.6408 539.6343,-257.2618 540.976,-267.7713 547.237,-264.6408"/>
</g>
<!-- 37 -->
<g id="node16" class="node">
<title>37</title>
<ellipse fill="none" stroke="#000000" cx="99" cy="-239.9931" rx="27" ry="18"/>
<text text-anchor="middle" x="99" y="-236.2931" font-family="Times,serif" font-size="14.00" fill="#000000">37</text>
</g>
<!-- 5&#45;&gt;37 -->
<g id="edge15" class="edge">
<title>5&#45;&gt;37</title>
<path fill="none" stroke="#000000" d="M540.0858,-308.8831C448.6506,-298.2845 154.5319,-263.9069 135,-257.9931 133.094,-257.416 131.1661,-256.7443 129.245,-256.0062"/>
<polygon fill="#000000" stroke="#000000" points="130.3918,-252.6879 119.8268,-251.8932 127.5903,-259.1028 130.3918,-252.6879"/>
</g>
<!-- 21 -->
<g id="node17" class="node">
<title>21</title>
<ellipse fill="none" stroke="#000000" cx="1323" cy="-239.9931" rx="27" ry="18"/>
<text text-anchor="middle" x="1323" y="-236.2931" font-family="Times,serif" font-size="14.00" fill="#000000">21</text>
</g>
<!-- 5&#45;&gt;21 -->
<g id="edge16" class="edge">
<title>5&#45;&gt;21</title>
<path fill="none" stroke="#000000" d="M593.9941,-310.0392C723.8622,-300.6304 1278.4661,-260.3481 1287,-257.9931 1289.1345,-257.4041 1291.2921,-256.6851 1293.4344,-255.8773"/>
<polygon fill="#000000" stroke="#000000" points="1294.8299,-259.0872 1302.6099,-251.8954 1292.0431,-252.6658 1294.8299,-259.0872"/>
</g>
<!-- 13 -->
<g id="node18" class="node">
<title>13</title>
<ellipse fill="none" stroke="#000000" cx="459" cy="-239.9931" rx="27" ry="18"/>
<text text-anchor="middle" x="459" y="-236.2931" font-family="Times,serif" font-size="14.00" fill="#000000">13</text>
</g>
<!-- 5&#45;&gt;13 -->
<g id="edge17" class="edge">
<title>5&#45;&gt;13</title>
<path fill="none" stroke="#000000" d="M547.6918,-299.1209C530.6445,-287.7561 505.5981,-271.0585 486.4656,-258.3035"/>
<polygon fill="#000000" stroke="#000000" points="488.4031,-255.3887 478.1411,-252.7538 484.5201,-261.213 488.4031,-255.3887"/>
</g>
<!-- 7 -->
<g id="node19" class="node">
<title>7</title>
<ellipse fill="none" stroke="#000000" cx="603" cy="-239.9931" rx="27" ry="18"/>
<text text-anchor="middle" x="603" y="-236.2931" font-family="Times,serif" font-size="14.00" fill="#000000">7</text>
</g>
<!-- 5&#45;&gt;7 -->
<g id="edge19" class="edge">
<title>5&#45;&gt;7</title>
<path fill="none" stroke="#000000" d="M575.7146,-294.5639C579.9597,-286.0737 585.1536,-275.6859 589.8663,-266.2605"/>
<polygon fill="#000000" stroke="#000000" points="593.024,-267.7713 594.3657,-257.2618 586.763,-264.6408 593.024,-267.7713"/>
</g>
<!-- 37&#45;&gt;36 -->
<g id="edge108" class="edge">
<title>37&#45;&gt;36</title>
<path fill="none" stroke="#000000" d="M120.8705,-229.0578C145.2222,-216.882 184.762,-197.1121 212.2285,-183.3788"/>
<polygon fill="#000000" stroke="#000000" points="214.0165,-186.398 221.3955,-178.7953 210.886,-180.137 214.0165,-186.398"/>
</g>
<!-- 45 -->
<g id="node24" class="node">
<title>45</title>
<ellipse fill="none" stroke="#000000" cx="27" cy="-167.9931" rx="27" ry="18"/>
<text text-anchor="middle" x="27" y="-164.2931" font-family="Times,serif" font-size="14.00" fill="#000000">45</text>
</g>
<!-- 37&#45;&gt;45 -->
<g id="edge107" class="edge">
<title>37&#45;&gt;45</title>
<path fill="none" stroke="#000000" d="M83.7307,-224.7237C73.803,-214.7961 60.6847,-201.6778 49.5637,-190.5567"/>
<polygon fill="#000000" stroke="#000000" points="51.7933,-187.8366 42.2473,-183.2404 46.8436,-192.7864 51.7933,-187.8366"/>
</g>
<!-- 53 -->
<g id="node33" class="node">
<title>53</title>
<ellipse fill="none" stroke="#000000" cx="963" cy="-167.9931" rx="27" ry="18"/>
<text text-anchor="middle" x="963" y="-164.2931" font-family="Times,serif" font-size="14.00" fill="#000000">53</text>
</g>
<!-- 37&#45;&gt;53 -->
<g id="edge106" class="edge">
<title>37&#45;&gt;53</title>
<path fill="none" stroke="#000000" d="M119.36,-227.9784C124.3227,-225.5726 129.7252,-223.3655 135,-221.9931 476.0104,-133.2694 585.9896,-274.7167 927,-185.9931 928.9781,-185.4784 930.9741,-184.8464 932.9581,-184.1305"/>
<polygon fill="#000000" stroke="#000000" points="934.8107,-187.1458 942.64,-180.0078 932.0682,-180.7054 934.8107,-187.1458"/>
</g>
<!-- 21&#45;&gt;17 -->
<g id="edge56" class="edge">
<title>21&#45;&gt;17</title>
<path fill="none" stroke="#000000" d="M1323,-221.8244C1323,-214.124 1323,-204.9674 1323,-196.4097"/>
<polygon fill="#000000" stroke="#000000" points="1326.5001,-196.4063 1323,-186.4063 1319.5001,-196.4064 1326.5001,-196.4063"/>
</g>
<!-- 23 -->
<g id="node21" class="node">
<title>23</title>
<ellipse fill="none" stroke="#000000" cx="1179" cy="-167.9931" rx="27" ry="18"/>
<text text-anchor="middle" x="1179" y="-164.2931" font-family="Times,serif" font-size="14.00" fill="#000000">23</text>
</g>
<!-- 21&#45;&gt;23 -->
<g id="edge57" class="edge">
<title>21&#45;&gt;23</title>
<path fill="none" stroke="#000000" d="M1301.1295,-229.0578C1276.7778,-216.882 1237.238,-197.1121 1209.7715,-183.3788"/>
<polygon fill="#000000" stroke="#000000" points="1211.114,-180.137 1200.6045,-178.7953 1207.9835,-186.398 1211.114,-180.137"/>
</g>
<!-- 21&#45;&gt;53 -->
<g id="edge55" class="edge">
<title>21&#45;&gt;53</title>
<path fill="none" stroke="#000000" d="M1302.1732,-228.0929C1297.3205,-225.7436 1292.0828,-223.532 1287,-221.9931 1163.5388,-184.612 1122.4612,-223.3741 999,-185.9931 997.094,-185.416 995.1661,-184.7443 993.245,-184.0062"/>
<polygon fill="#000000" stroke="#000000" points="994.3918,-180.6879 983.8268,-179.8932 991.5903,-187.1028 994.3918,-180.6879"/>
</g>
<!-- 13&#45;&gt;9 -->
<g id="edge35" class="edge">
<title>13&#45;&gt;9</title>
<path fill="none" stroke="#000000" d="M474.2693,-224.7237C484.197,-214.7961 497.3153,-201.6778 508.4363,-190.5567"/>
<polygon fill="#000000" stroke="#000000" points="511.1564,-192.7864 515.7527,-183.2404 506.2067,-187.8366 511.1564,-192.7864"/>
</g>
<!-- 13&#45;&gt;12 -->
<g id="edge37" class="edge">
<title>13&#45;&gt;12</title>
<path fill="none" stroke="#000000" d="M480.8705,-229.0578C505.2222,-216.882 544.762,-197.1121 572.2285,-183.3788"/>
<polygon fill="#000000" stroke="#000000" points="574.0165,-186.398 581.3955,-178.7953 570.886,-180.137 574.0165,-186.398"/>
</g>
<!-- 15 -->
<g id="node22" class="node">
<title>15</title>
<ellipse fill="none" stroke="#000000" cx="459" cy="-167.9931" rx="27" ry="18"/>
<text text-anchor="middle" x="459" y="-164.2931" font-family="Times,serif" font-size="14.00" fill="#000000">15</text>
</g>
<!-- 13&#45;&gt;15 -->
<g id="edge36" class="edge">
<title>13&#45;&gt;15</title>
<path fill="none" stroke="#000000" d="M459,-221.8244C459,-214.124 459,-204.9674 459,-196.4097"/>
<polygon fill="#000000" stroke="#000000" points="462.5001,-196.4063 459,-186.4063 455.5001,-196.4064 462.5001,-196.4063"/>
</g>
<!-- 13&#45;&gt;45 -->
<g id="edge34" class="edge">
<title>13&#45;&gt;45</title>
<path fill="none" stroke="#000000" d="M438.5832,-228.1851C433.6229,-225.7708 428.2356,-223.508 423,-221.9931 268.5381,-177.2995 217.4619,-230.6867 63,-185.9931 60.873,-185.3776 58.721,-184.6388 56.5828,-183.8165"/>
<polygon fill="#000000" stroke="#000000" points="57.9808,-180.6078 47.4168,-179.8011 55.172,-187.0196 57.9808,-180.6078"/>
</g>
<!-- 7&#45;&gt;3 -->
<g id="edge25" class="edge">
<title>7&#45;&gt;3</title>
<path fill="none" stroke="#000000" d="M624.8705,-229.0578C649.2222,-216.882 688.762,-197.1121 716.2285,-183.3788"/>
<polygon fill="#000000" stroke="#000000" points="718.0165,-186.398 725.3955,-178.7953 714.886,-180.137 718.0165,-186.398"/>
</g>
<!-- 7&#45;&gt;6 -->
<g id="edge26" class="edge">
<title>7&#45;&gt;6</title>
<path fill="none" stroke="#000000" d="M618.2693,-224.7237C628.197,-214.7961 641.3153,-201.6778 652.4363,-190.5567"/>
<polygon fill="#000000" stroke="#000000" points="655.1564,-192.7864 659.7527,-183.2404 650.2067,-187.8366 655.1564,-192.7864"/>
</g>
<!-- 7&#45;&gt;23 -->
<g id="edge23" class="edge">
<title>7&#45;&gt;23</title>
<path fill="none" stroke="#000000" d="M623.3864,-228.0772C628.348,-225.6674 633.7434,-223.4336 639,-221.9931 855.5851,-162.6392 926.4149,-245.347 1143,-185.9931 1145.1355,-185.4079 1147.2939,-184.6917 1149.4368,-183.8861"/>
<polygon fill="#000000" stroke="#000000" points="1150.83,-187.0969 1158.6136,-179.909 1148.0465,-180.6741 1150.83,-187.0969"/>
</g>
<!-- 7&#45;&gt;15 -->
<g id="edge24" class="edge">
<title>7&#45;&gt;15</title>
<path fill="none" stroke="#000000" d="M581.1295,-229.0578C556.7778,-216.882 517.238,-197.1121 489.7715,-183.3788"/>
<polygon fill="#000000" stroke="#000000" points="491.114,-180.137 480.6045,-178.7953 487.9835,-186.398 491.114,-180.137"/>
</g>
<!-- 14&#45;&gt;10 -->
<g id="edge38" class="edge">
<title>14&#45;&gt;10</title>
<path fill="none" stroke="#000000" d="M611.3496,-77.1006C615.694,-68.0502 621.1032,-56.7815 625.9823,-46.6172"/>
<polygon fill="#000000" stroke="#000000" points="629.2735,-47.8487 630.4457,-37.3189 622.9628,-44.8195 629.2735,-47.8487"/>
</g>
<!-- 23&#45;&gt;19 -->
<g id="edge62" class="edge">
<title>23&#45;&gt;19</title>
<path fill="none" stroke="#000000" d="M1187.8135,-150.9464C1192.3992,-142.0768 1198.109,-131.0332 1203.2591,-121.072"/>
<polygon fill="#000000" stroke="#000000" points="1206.4868,-122.4499 1207.9704,-111.9595 1200.2687,-119.235 1206.4868,-122.4499"/>
</g>
<!-- 15&#45;&gt;11 -->
<g id="edge39" class="edge">
<title>15&#45;&gt;11</title>
<path fill="none" stroke="#000000" d="M473.9184,-152.7642C484.055,-142.4167 497.6346,-128.5545 509.0056,-116.9469"/>
<polygon fill="#000000" stroke="#000000" points="511.603,-119.297 516.1007,-109.7042 506.6025,-114.3985 511.603,-119.297"/>
</g>
<!-- 15&#45;&gt;14 -->
<g id="edge40" class="edge">
<title>15&#45;&gt;14</title>
<path fill="none" stroke="#000000" d="M480.8481,-157.0746C512.099,-141.4562 565.9454,-114.5422 567,-113.9931 568.9978,-112.953 571.0525,-111.8716 573.1196,-110.7752"/>
<polygon fill="#000000" stroke="#000000" points="574.9599,-113.7599 582.1219,-105.9525 571.6543,-107.5896 574.9599,-113.7599"/>
</g>
<!-- 45&#45;&gt;44 -->
<g id="edge129" class="edge">
<title>45&#45;&gt;44</title>
<path fill="none" stroke="#000000" d="M48.0175,-156.6474C52.8603,-154.2694 58.0458,-151.9059 63,-149.9931 118.2994,-128.6421 185.1619,-111.64 225.3228,-102.3277"/>
<polygon fill="#000000" stroke="#000000" points="226.2109,-105.715 235.1784,-100.0728 224.6497,-98.8913 226.2109,-105.715"/>
</g>
<!-- 16 -->
<g id="node25" class="node">
<title>16</title>
<ellipse fill="none" stroke="#000000" cx="1683" cy="-239.9931" rx="27" ry="18"/>
<text text-anchor="middle" x="1683" y="-236.2931" font-family="Times,serif" font-size="14.00" fill="#000000">16</text>
</g>
<!-- 16&#45;&gt;0 -->
<g id="edge41" class="edge">
<title>16&#45;&gt;0</title>
<path fill="none" stroke="#000000" d="M1662.64,-227.9784C1657.6773,-225.5726 1652.2748,-223.3655 1647,-221.9931 1305.9896,-133.2694 1196.0104,-274.7167 855,-185.9931 853.0219,-185.4784 851.0259,-184.8464 849.0419,-184.1305"/>
<polygon fill="#000000" stroke="#000000" points="849.9318,-180.7054 839.36,-180.0078 847.1893,-187.1458 849.9318,-180.7054"/>
</g>
<!-- 16&#45;&gt;17 -->
<g id="edge44" class="edge">
<title>16&#45;&gt;17</title>
<path fill="none" stroke="#000000" d="M1662.1732,-228.0929C1657.3205,-225.7436 1652.0828,-223.532 1647,-221.9931 1523.5388,-184.612 1482.4612,-223.3741 1359,-185.9931 1357.094,-185.416 1355.1661,-184.7443 1353.245,-184.0062"/>
<polygon fill="#000000" stroke="#000000" points="1354.3918,-180.6879 1343.8268,-179.8932 1351.5903,-187.1028 1354.3918,-180.6879"/>
</g>
<!-- 24 -->
<g id="node26" class="node">
<title>24</title>
<ellipse fill="none" stroke="#000000" cx="1467" cy="-167.9931" rx="27" ry="18"/>
<text text-anchor="middle" x="1467" y="-164.2931" font-family="Times,serif" font-size="14.00" fill="#000000">24</text>
</g>
<!-- 16&#45;&gt;24 -->
<g id="edge42" class="edge">
<title>16&#45;&gt;24</title>
<path fill="none" stroke="#000000" d="M1662.022,-228.5431C1657.1771,-226.1705 1651.9808,-223.8356 1647,-221.9931 1585.128,-199.1051 1564.872,-208.881 1503,-185.9931 1501.1322,-185.3021 1499.2341,-184.5419 1497.3356,-183.7365"/>
<polygon fill="#000000" stroke="#000000" points="1498.5266,-180.4322 1487.978,-179.443 1495.6074,-186.7944 1498.5266,-180.4322"/>
</g>
<!-- 18 -->
<g id="node27" class="node">
<title>18</title>
<ellipse fill="none" stroke="#000000" cx="1539" cy="-167.9931" rx="27" ry="18"/>
<text text-anchor="middle" x="1539" y="-164.2931" font-family="Times,serif" font-size="14.00" fill="#000000">18</text>
</g>
<!-- 16&#45;&gt;18 -->
<g id="edge43" class="edge">
<title>16&#45;&gt;18</title>
<path fill="none" stroke="#000000" d="M1661.1295,-229.0578C1636.7778,-216.882 1597.238,-197.1121 1569.7715,-183.3788"/>
<polygon fill="#000000" stroke="#000000" points="1571.114,-180.137 1560.6045,-178.7953 1567.9835,-186.398 1571.114,-180.137"/>
</g>
<!-- 24&#45;&gt;8 -->
<g id="edge63" class="edge">
<title>24&#45;&gt;8</title>
<path fill="none" stroke="#000000" d="M1446.6355,-155.9957C1441.673,-153.5892 1436.2717,-151.3774 1431,-149.9931 1121.1071,-68.6148 1019.5193,-200.4328 711,-113.9931 708.5446,-113.3051 706.0704,-112.4271 703.6309,-111.4257"/>
<polygon fill="#000000" stroke="#000000" points="705.0418,-108.2212 694.5072,-107.0938 702.0395,-114.5447 705.0418,-108.2212"/>
</g>
<!-- 26 -->
<g id="node28" class="node">
<title>26</title>
<ellipse fill="none" stroke="#000000" cx="1285" cy="-94.4948" rx="27" ry="18"/>
<text text-anchor="middle" x="1285" y="-90.7948" font-family="Times,serif" font-size="14.00" fill="#000000">26</text>
</g>
<!-- 24&#45;&gt;26 -->
<g id="edge64" class="edge">
<title>24&#45;&gt;26</title>
<path fill="none" stroke="#000000" d="M1445.4651,-156.7858C1440.7409,-154.4511 1435.7352,-152.0706 1431,-149.9931 1393.0732,-133.353 1348.4328,-116.8137 1318.5899,-106.178"/>
<polygon fill="#000000" stroke="#000000" points="1319.6624,-102.8448 1309.0677,-102.8058 1317.3256,-109.4433 1319.6624,-102.8448"/>
</g>
<!-- 18&#45;&gt;19 -->
<g id="edge48" class="edge">
<title>18&#45;&gt;19</title>
<path fill="none" stroke="#000000" d="M1518.1542,-156.1548C1513.3025,-153.8023 1508.07,-151.5738 1503,-149.9931 1394.1504,-116.0569 1356.3365,-152.4481 1249,-113.9931 1246.5885,-113.1291 1244.1618,-112.0697 1241.7816,-110.8953"/>
<polygon fill="#000000" stroke="#000000" points="1243.3996,-107.79 1232.9628,-105.9668 1239.9846,-113.9006 1243.3996,-107.79"/>
</g>
<!-- 18&#45;&gt;2 -->
<g id="edge46" class="edge">
<title>18&#45;&gt;2</title>
<path fill="none" stroke="#000000" d="M1518.6116,-156.0847C1513.65,-153.6746 1508.2552,-151.4388 1503,-149.9931 1433.3598,-130.8348 927.2124,-103.7223 784.4162,-96.3864"/>
<polygon fill="#000000" stroke="#000000" points="784.1756,-92.8696 774.0098,-95.8538 783.8178,-99.8604 784.1756,-92.8696"/>
</g>
<!-- 18&#45;&gt;26 -->
<g id="edge47" class="edge">
<title>18&#45;&gt;26</title>
<path fill="none" stroke="#000000" d="M1518.0161,-156.559C1513.1715,-154.1856 1507.9768,-151.8463 1503,-149.9931 1440.6554,-126.7776 1364.757,-109.8849 1320.9464,-101.1795"/>
<polygon fill="#000000" stroke="#000000" points="1321.5377,-97.7289 1311.0519,-99.2446 1320.1942,-104.5988 1321.5377,-97.7289"/>
</g>
<!-- 26&#45;&gt;10 -->
<g id="edge69" class="edge">
<title>26&#45;&gt;10</title>
<path fill="none" stroke="#000000" d="M1264.3898,-82.6881C1258.3205,-79.7016 1251.5477,-76.8259 1245,-74.9965 1134.4529,-44.1106 774.9873,-25.6729 668.7983,-20.8029"/>
<polygon fill="#000000" stroke="#000000" points="668.9222,-17.305 658.7741,-20.3492 668.6056,-24.2979 668.9222,-17.305"/>
</g>
<!-- 20 -->
<g id="node29" class="node">
<title>20</title>
<ellipse fill="none" stroke="#000000" cx="1485" cy="-311.9931" rx="27" ry="18"/>
<text text-anchor="middle" x="1485" y="-308.2931" font-family="Times,serif" font-size="14.00" fill="#000000">20</text>
</g>
<!-- 20&#45;&gt;4 -->
<g id="edge50" class="edge">
<title>20&#45;&gt;4</title>
<path fill="none" stroke="#000000" d="M1459.5652,-305.8177C1441.6322,-301.7319 1416.9885,-296.6539 1395,-293.9931 1212.16,-271.8678 745.2855,-304.1915 567,-257.9931 565.0214,-257.4804 563.025,-256.8499 561.0407,-256.1351"/>
<polygon fill="#000000" stroke="#000000" points="561.9301,-252.7099 551.358,-252.0154 559.1894,-259.1511 561.9301,-252.7099"/>
</g>
<!-- 20&#45;&gt;21 -->
<g id="edge54" class="edge">
<title>20&#45;&gt;21</title>
<path fill="none" stroke="#000000" d="M1461.5962,-302.4461C1436.1599,-291.9581 1394.4079,-274.4152 1359,-257.9931 1357.2409,-257.1772 1355.4402,-256.3267 1353.6275,-255.4587"/>
<polygon fill="#000000" stroke="#000000" points="1355.1237,-252.2944 1344.602,-251.0516 1352.0522,-258.5845 1355.1237,-252.2944"/>
</g>
<!-- 20&#45;&gt;16 -->
<g id="edge52" class="edge">
<title>20&#45;&gt;16</title>
<path fill="none" stroke="#000000" d="M1510.1022,-304.8342C1542.2922,-295.3808 1599.6159,-277.6202 1647,-257.9931 1648.7915,-257.251 1650.6176,-256.4583 1652.4498,-255.6347"/>
<polygon fill="#000000" stroke="#000000" points="1653.9792,-258.7832 1661.5289,-251.35 1650.9916,-252.4527 1653.9792,-258.7832"/>
</g>
<!-- 52 -->
<g id="node30" class="node">
<title>52</title>
<ellipse fill="none" stroke="#000000" cx="1107" cy="-239.9931" rx="27" ry="18"/>
<text text-anchor="middle" x="1107" y="-236.2931" font-family="Times,serif" font-size="14.00" fill="#000000">52</text>
</g>
<!-- 20&#45;&gt;52 -->
<g id="edge49" class="edge">
<title>20&#45;&gt;52</title>
<path fill="none" stroke="#000000" d="M1459.0774,-306.412C1441.1335,-302.6462 1416.6739,-297.7057 1395,-293.9931 1283.487,-274.8917 1250.9909,-291.7269 1143,-257.9931 1141.0991,-257.3993 1139.1752,-256.7146 1137.2571,-255.9666"/>
<polygon fill="#000000" stroke="#000000" points="1138.4099,-252.6501 1127.8471,-251.8272 1135.5913,-259.0576 1138.4099,-252.6501"/>
</g>
<!-- 28 -->
<g id="node31" class="node">
<title>28</title>
<ellipse fill="none" stroke="#000000" cx="1539" cy="-239.9931" rx="27" ry="18"/>
<text text-anchor="middle" x="1539" y="-236.2931" font-family="Times,serif" font-size="14.00" fill="#000000">28</text>
</g>
<!-- 20&#45;&gt;28 -->
<g id="edge51" class="edge">
<title>20&#45;&gt;28</title>
<path fill="none" stroke="#000000" d="M1497.2534,-295.6552C1504.1577,-286.4495 1512.9177,-274.7695 1520.6285,-264.4884"/>
<polygon fill="#000000" stroke="#000000" points="1523.595,-266.3664 1526.7951,-256.2663 1517.995,-262.1663 1523.595,-266.3664"/>
</g>
<!-- 22 -->
<g id="node32" class="node">
<title>22</title>
<ellipse fill="none" stroke="#000000" cx="1611" cy="-239.9931" rx="27" ry="18"/>
<text text-anchor="middle" x="1611" y="-236.2931" font-family="Times,serif" font-size="14.00" fill="#000000">22</text>
</g>
<!-- 20&#45;&gt;22 -->
<g id="edge53" class="edge">
<title>20&#45;&gt;22</title>
<path fill="none" stroke="#000000" d="M1505.5245,-300.2648C1526.2092,-288.445 1558.3287,-270.091 1581.6909,-256.7411"/>
<polygon fill="#000000" stroke="#000000" points="1583.5383,-259.7166 1590.4843,-251.7163 1580.0653,-253.6389 1583.5383,-259.7166"/>
</g>
<!-- 52&#45;&gt;36 -->
<g id="edge151" class="edge">
<title>52&#45;&gt;36</title>
<path fill="none" stroke="#000000" d="M1086.64,-227.9784C1081.6773,-225.5726 1076.2748,-223.3655 1071,-221.9931 729.9896,-133.2694 620.0104,-274.7167 279,-185.9931 277.0219,-185.4784 275.0259,-184.8464 273.0419,-184.1305"/>
<polygon fill="#000000" stroke="#000000" points="273.9318,-180.7054 263.36,-180.0078 271.1893,-187.1458 273.9318,-180.7054"/>
</g>
<!-- 52&#45;&gt;53 -->
<g id="edge153" class="edge">
<title>52&#45;&gt;53</title>
<path fill="none" stroke="#000000" d="M1085.1295,-229.0578C1060.7778,-216.882 1021.238,-197.1121 993.7715,-183.3788"/>
<polygon fill="#000000" stroke="#000000" points="995.114,-180.137 984.6045,-178.7953 991.9835,-186.398 995.114,-180.137"/>
</g>
<!-- 60 -->
<g id="node37" class="node">
<title>60</title>
<ellipse fill="none" stroke="#000000" cx="1035" cy="-167.9931" rx="27" ry="18"/>
<text text-anchor="middle" x="1035" y="-164.2931" font-family="Times,serif" font-size="14.00" fill="#000000">60</text>
</g>
<!-- 52&#45;&gt;60 -->
<g id="edge152" class="edge">
<title>52&#45;&gt;60</title>
<path fill="none" stroke="#000000" d="M1091.7307,-224.7237C1081.803,-214.7961 1068.6847,-201.6778 1057.5637,-190.5567"/>
<polygon fill="#000000" stroke="#000000" points="1059.7933,-187.8366 1050.2473,-183.2404 1054.8436,-192.7864 1059.7933,-187.8366"/>
</g>
<!-- 28&#45;&gt;12 -->
<g id="edge74" class="edge">
<title>28&#45;&gt;12</title>
<path fill="none" stroke="#000000" d="M1518.6438,-227.9639C1513.6809,-225.5587 1508.2774,-223.3555 1503,-221.9931 1130.8676,-125.9229 1011.1324,-282.0633 639,-185.9931 637.021,-185.4822 635.0242,-184.853 633.0396,-184.1393"/>
<polygon fill="#000000" stroke="#000000" points="633.9285,-180.7141 623.3562,-180.0223 631.1895,-187.156 633.9285,-180.7141"/>
</g>
<!-- 28&#45;&gt;24 -->
<g id="edge75" class="edge">
<title>28&#45;&gt;24</title>
<path fill="none" stroke="#000000" d="M1523.7307,-224.7237C1513.803,-214.7961 1500.6847,-201.6778 1489.5637,-190.5567"/>
<polygon fill="#000000" stroke="#000000" points="1491.7933,-187.8366 1482.2473,-183.2404 1486.8436,-192.7864 1491.7933,-187.8366"/>
</g>
<!-- 30 -->
<g id="node34" class="node">
<title>30</title>
<ellipse fill="none" stroke="#000000" cx="1395" cy="-167.9931" rx="27" ry="18"/>
<text text-anchor="middle" x="1395" y="-164.2931" font-family="Times,serif" font-size="14.00" fill="#000000">30</text>
</g>
<!-- 28&#45;&gt;30 -->
<g id="edge76" class="edge">
<title>28&#45;&gt;30</title>
<path fill="none" stroke="#000000" d="M1517.1295,-229.0578C1492.7778,-216.882 1453.238,-197.1121 1425.7715,-183.3788"/>
<polygon fill="#000000" stroke="#000000" points="1427.114,-180.137 1416.6045,-178.7953 1423.9835,-186.398 1427.114,-180.137"/>
</g>
<!-- 28&#45;&gt;60 -->
<g id="edge73" class="edge">
<title>28&#45;&gt;60</title>
<path fill="none" stroke="#000000" d="M1518.6011,-228.1223C1513.64,-225.7106 1508.248,-223.4647 1503,-221.9931 1317.4901,-169.9731 1256.5099,-238.013 1071,-185.9931 1068.868,-185.3952 1066.7122,-184.6696 1064.5712,-183.857"/>
<polygon fill="#000000" stroke="#000000" points="1065.9648,-180.6464 1055.3989,-179.8639 1063.1706,-187.0646 1065.9648,-180.6464"/>
</g>
<!-- 22&#45;&gt;6 -->
<g id="edge58" class="edge">
<title>22&#45;&gt;6</title>
<path fill="none" stroke="#000000" d="M1590.6438,-227.9639C1585.6809,-225.5587 1580.2774,-223.3555 1575,-221.9931 1202.8676,-125.9229 1083.1324,-282.0633 711,-185.9931 709.021,-185.4822 707.0242,-184.853 705.0396,-184.1393"/>
<polygon fill="#000000" stroke="#000000" points="705.9285,-180.7141 695.3562,-180.0223 703.1895,-187.156 705.9285,-180.7141"/>
</g>
<!-- 22&#45;&gt;23 -->
<g id="edge61" class="edge">
<title>22&#45;&gt;23</title>
<path fill="none" stroke="#000000" d="M1590.5832,-228.1851C1585.6229,-225.7708 1580.2356,-223.508 1575,-221.9931 1420.5381,-177.2995 1369.4619,-230.6867 1215,-185.9931 1212.873,-185.3776 1210.721,-184.6388 1208.5828,-183.8165"/>
<polygon fill="#000000" stroke="#000000" points="1209.9808,-180.6078 1199.4168,-179.8011 1207.172,-187.0196 1209.9808,-180.6078"/>
</g>
<!-- 22&#45;&gt;18 -->
<g id="edge60" class="edge">
<title>22&#45;&gt;18</title>
<path fill="none" stroke="#000000" d="M1595.7307,-224.7237C1585.803,-214.7961 1572.6847,-201.6778 1561.5637,-190.5567"/>
<polygon fill="#000000" stroke="#000000" points="1563.7933,-187.8366 1554.2473,-183.2404 1558.8436,-192.7864 1563.7933,-187.8366"/>
</g>
<!-- 22&#45;&gt;30 -->
<g id="edge59" class="edge">
<title>22&#45;&gt;30</title>
<path fill="none" stroke="#000000" d="M1590.022,-228.5431C1585.1771,-226.1705 1579.9808,-223.8356 1575,-221.9931 1513.128,-199.1051 1492.872,-208.881 1431,-185.9931 1429.1322,-185.3021 1427.2341,-184.5419 1425.3356,-183.7365"/>
<polygon fill="#000000" stroke="#000000" points="1426.5266,-180.4322 1415.978,-179.443 1423.6074,-186.7944 1426.5266,-180.4322"/>
</g>
<!-- 30&#45;&gt;14 -->
<g id="edge83" class="edge">
<title>30&#45;&gt;14</title>
<path fill="none" stroke="#000000" d="M1374.6355,-155.9957C1369.673,-153.5892 1364.2717,-151.3774 1359,-149.9931 1049.1071,-68.6148 947.5193,-200.4328 639,-113.9931 636.5446,-113.3051 634.0704,-112.4271 631.6309,-111.4257"/>
<polygon fill="#000000" stroke="#000000" points="633.0418,-108.2212 622.5072,-107.0938 630.0395,-114.5447 633.0418,-108.2212"/>
</g>
<!-- 30&#45;&gt;26 -->
<g id="edge84" class="edge">
<title>30&#45;&gt;26</title>
<path fill="none" stroke="#000000" d="M1375.8395,-155.1907C1358.4379,-143.5635 1332.5584,-126.2717 1312.8685,-113.1156"/>
<polygon fill="#000000" stroke="#000000" points="1314.5693,-110.0426 1304.31,-107.3971 1310.6803,-115.863 1314.5693,-110.0426"/>
</g>
<!-- 25 -->
<g id="node35" class="node">
<title>25</title>
<ellipse fill="none" stroke="#000000" cx="1467" cy="-239.9931" rx="27" ry="18"/>
<text text-anchor="middle" x="1467" y="-236.2931" font-family="Times,serif" font-size="14.00" fill="#000000">25</text>
</g>
<!-- 25&#45;&gt;17 -->
<g id="edge66" class="edge">
<title>25&#45;&gt;17</title>
<path fill="none" stroke="#000000" d="M1445.1295,-229.0578C1420.7778,-216.882 1381.238,-197.1121 1353.7715,-183.3788"/>
<polygon fill="#000000" stroke="#000000" points="1355.114,-180.137 1344.6045,-178.7953 1351.9835,-186.398 1355.114,-180.137"/>
</g>
<!-- 25&#45;&gt;9 -->
<g id="edge65" class="edge">
<title>25&#45;&gt;9</title>
<path fill="none" stroke="#000000" d="M1446.6438,-227.9639C1441.6809,-225.5587 1436.2774,-223.3555 1431,-221.9931 1058.8676,-125.9229 939.1324,-282.0633 567,-185.9931 565.021,-185.4822 563.0242,-184.853 561.0396,-184.1393"/>
<polygon fill="#000000" stroke="#000000" points="561.9285,-180.7141 551.3562,-180.0223 559.1895,-187.156 561.9285,-180.7141"/>
</g>
<!-- 25&#45;&gt;24 -->
<g id="edge68" class="edge">
<title>25&#45;&gt;24</title>
<path fill="none" stroke="#000000" d="M1467,-221.8244C1467,-214.124 1467,-204.9674 1467,-196.4097"/>
<polygon fill="#000000" stroke="#000000" points="1470.5001,-196.4063 1467,-186.4063 1463.5001,-196.4064 1470.5001,-196.4063"/>
</g>
<!-- 27 -->
<g id="node36" class="node">
<title>27</title>
<ellipse fill="none" stroke="#000000" cx="1251" cy="-167.9931" rx="27" ry="18"/>
<text text-anchor="middle" x="1251" y="-164.2931" font-family="Times,serif" font-size="14.00" fill="#000000">27</text>
</g>
<!-- 25&#45;&gt;27 -->
<g id="edge67" class="edge">
<title>25&#45;&gt;27</title>
<path fill="none" stroke="#000000" d="M1446.022,-228.5431C1441.1771,-226.1705 1435.9808,-223.8356 1431,-221.9931 1369.128,-199.1051 1348.872,-208.881 1287,-185.9931 1285.1322,-185.3021 1283.2341,-184.5419 1281.3356,-183.7365"/>
<polygon fill="#000000" stroke="#000000" points="1282.5266,-180.4322 1271.978,-179.443 1279.6074,-186.7944 1282.5266,-180.4322"/>
</g>
<!-- 27&#45;&gt;19 -->
<g id="edge71" class="edge">
<title>27&#45;&gt;19</title>
<path fill="none" stroke="#000000" d="M1242.9425,-150.575C1238.9365,-141.9152 1234.0043,-131.2533 1229.52,-121.5595"/>
<polygon fill="#000000" stroke="#000000" points="1232.611,-119.9049 1225.2359,-112.2984 1226.2578,-122.8439 1232.611,-119.9049"/>
</g>
<!-- 27&#45;&gt;11 -->
<g id="edge70" class="edge">
<title>27&#45;&gt;11</title>
<path fill="none" stroke="#000000" d="M1230.6299,-156.0169C1225.6676,-153.6095 1220.2678,-151.392 1215,-149.9931 936.2189,-75.9587 844.532,-192.5807 567,-113.9931 564.5465,-113.2983 562.0737,-112.4154 559.6352,-111.4107"/>
<polygon fill="#000000" stroke="#000000" points="561.0472,-108.2066 550.5132,-107.0723 558.0406,-114.528 561.0472,-108.2066"/>
</g>
<!-- 27&#45;&gt;26 -->
<g id="edge72" class="edge">
<title>27&#45;&gt;26</title>
<path fill="none" stroke="#000000" d="M1259.0575,-150.575C1263.1224,-141.7879 1268.1409,-130.9393 1272.6775,-121.1325"/>
<polygon fill="#000000" stroke="#000000" points="1275.9783,-122.3333 1277.0003,-111.7878 1269.6252,-119.3943 1275.9783,-122.3333"/>
</g>
<!-- 60&#45;&gt;44 -->
<g id="edge179" class="edge">
<title>60&#45;&gt;44</title>
<path fill="none" stroke="#000000" d="M1014.6314,-156.0111C1009.6691,-153.604 1004.2689,-151.3881 999,-149.9931 712.4416,-74.1229 625.682,-160.9959 333,-113.9931 320.5392,-111.992 307.1317,-108.6888 295.3039,-105.3649"/>
<polygon fill="#000000" stroke="#000000" points="295.96,-101.9105 285.38,-102.4708 294.0002,-108.6306 295.96,-101.9105"/>
</g>
<!-- 29 -->
<g id="node38" class="node">
<title>29</title>
<ellipse fill="none" stroke="#000000" cx="1359" cy="-311.9931" rx="27" ry="18"/>
<text text-anchor="middle" x="1359" y="-308.2931" font-family="Times,serif" font-size="14.00" fill="#000000">29</text>
</g>
<!-- 29&#45;&gt;21 -->
<g id="edge79" class="edge">
<title>29&#45;&gt;21</title>
<path fill="none" stroke="#000000" d="M1350.2854,-294.5639C1346.0403,-286.0737 1340.8464,-275.6859 1336.1337,-266.2605"/>
<polygon fill="#000000" stroke="#000000" points="1339.237,-264.6408 1331.6343,-257.2618 1332.976,-267.7713 1339.237,-264.6408"/>
</g>
<!-- 29&#45;&gt;13 -->
<g id="edge78" class="edge">
<title>29&#45;&gt;13</title>
<path fill="none" stroke="#000000" d="M1332.5225,-308.0834C1303.683,-303.9654 1256.1622,-297.5898 1215,-293.9931 1055.4082,-280.0483 649.9464,-298.6822 495,-257.9931 493.0231,-257.4739 491.028,-256.8385 489.0447,-256.12"/>
<polygon fill="#000000" stroke="#000000" points="489.9359,-252.6951 479.3645,-251.9905 487.1892,-259.1337 489.9359,-252.6951"/>
</g>
<!-- 29&#45;&gt;28 -->
<g id="edge82" class="edge">
<title>29&#45;&gt;28</title>
<path fill="none" stroke="#000000" d="M1383.2584,-303.7714C1412.131,-293.7858 1461.6385,-276.0296 1503,-257.9931 1504.7774,-257.218 1506.5926,-256.3994 1508.4163,-255.5559"/>
<polygon fill="#000000" stroke="#000000" points="1509.9666,-258.6942 1517.4722,-251.2165 1506.9416,-252.3816 1509.9666,-258.6942"/>
</g>
<!-- 29&#45;&gt;25 -->
<g id="edge80" class="edge">
<title>29&#45;&gt;25</title>
<path fill="none" stroke="#000000" d="M1378.3082,-299.1209C1395.3555,-287.7561 1420.4019,-271.0585 1439.5344,-258.3035"/>
<polygon fill="#000000" stroke="#000000" points="1441.4799,-261.213 1447.8589,-252.7538 1437.5969,-255.3887 1441.4799,-261.213"/>
</g>
<!-- 61 -->
<g id="node39" class="node">
<title>61</title>
<ellipse fill="none" stroke="#000000" cx="819" cy="-239.9931" rx="27" ry="18"/>
<text text-anchor="middle" x="819" y="-236.2931" font-family="Times,serif" font-size="14.00" fill="#000000">61</text>
</g>
<!-- 29&#45;&gt;61 -->
<g id="edge77" class="edge">
<title>29&#45;&gt;61</title>
<path fill="none" stroke="#000000" d="M1332.4829,-308.4793C1303.6096,-304.6999 1256.0601,-298.6116 1215,-293.9931 1055.2097,-276.0194 1009.4619,-302.6867 855,-257.9931 852.873,-257.3776 850.721,-256.6388 848.5828,-255.8165"/>
<polygon fill="#000000" stroke="#000000" points="849.9808,-252.6078 839.4168,-251.8011 847.172,-259.0196 849.9808,-252.6078"/>
</g>
<!-- 31 -->
<g id="node40" class="node">
<title>31</title>
<ellipse fill="none" stroke="#000000" cx="1395" cy="-239.9931" rx="27" ry="18"/>
<text text-anchor="middle" x="1395" y="-236.2931" font-family="Times,serif" font-size="14.00" fill="#000000">31</text>
</g>
<!-- 29&#45;&gt;31 -->
<g id="edge81" class="edge">
<title>29&#45;&gt;31</title>
<path fill="none" stroke="#000000" d="M1367.7146,-294.5639C1371.9597,-286.0737 1377.1536,-275.6859 1381.8663,-266.2605"/>
<polygon fill="#000000" stroke="#000000" points="1385.024,-267.7713 1386.3657,-257.2618 1378.763,-264.6408 1385.024,-267.7713"/>
</g>
<!-- 61&#45;&gt;45 -->
<g id="edge180" class="edge">
<title>61&#45;&gt;45</title>
<path fill="none" stroke="#000000" d="M798.6355,-227.9957C793.673,-225.5892 788.2717,-223.3774 783,-221.9931 473.1071,-140.6148 372.8929,-267.3713 63,-185.9931 61.0231,-185.4739 59.028,-184.8385 57.0447,-184.12"/>
<polygon fill="#000000" stroke="#000000" points="57.9359,-180.6951 47.3645,-179.9905 55.1892,-187.1337 57.9359,-180.6951"/>
</g>
<!-- 61&#45;&gt;53 -->
<g id="edge181" class="edge">
<title>61&#45;&gt;53</title>
<path fill="none" stroke="#000000" d="M840.8705,-229.0578C865.2222,-216.882 904.762,-197.1121 932.2285,-183.3788"/>
<polygon fill="#000000" stroke="#000000" points="934.0165,-186.398 941.3955,-178.7953 930.886,-180.137 934.0165,-186.398"/>
</g>
<!-- 61&#45;&gt;60 -->
<g id="edge182" class="edge">
<title>61&#45;&gt;60</title>
<path fill="none" stroke="#000000" d="M839.978,-228.5431C844.8229,-226.1705 850.0192,-223.8356 855,-221.9931 916.872,-199.1051 937.128,-208.881 999,-185.9931 1000.8678,-185.3021 1002.7659,-184.5419 1004.6644,-183.7365"/>
<polygon fill="#000000" stroke="#000000" points="1006.3926,-186.7944 1014.022,-179.443 1003.4734,-180.4322 1006.3926,-186.7944"/>
</g>
<!-- 31&#45;&gt;23 -->
<g id="edge86" class="edge">
<title>31&#45;&gt;23</title>
<path fill="none" stroke="#000000" d="M1374.022,-228.5431C1369.1771,-226.1705 1363.9808,-223.8356 1359,-221.9931 1297.128,-199.1051 1276.872,-208.881 1215,-185.9931 1213.1322,-185.3021 1211.2341,-184.5419 1209.3356,-183.7365"/>
<polygon fill="#000000" stroke="#000000" points="1210.5266,-180.4322 1199.978,-179.443 1207.6074,-186.7944 1210.5266,-180.4322"/>
</g>
<!-- 31&#45;&gt;15 -->
<g id="edge85" class="edge">
<title>31&#45;&gt;15</title>
<path fill="none" stroke="#000000" d="M1374.6438,-227.9639C1369.6809,-225.5587 1364.2774,-223.3555 1359,-221.9931 986.8676,-125.9229 867.1324,-282.0633 495,-185.9931 493.021,-185.4822 491.0242,-184.853 489.0396,-184.1393"/>
<polygon fill="#000000" stroke="#000000" points="489.9285,-180.7141 479.3562,-180.0223 487.1895,-187.156 489.9285,-180.7141"/>
</g>
<!-- 31&#45;&gt;30 -->
<g id="edge88" class="edge">
<title>31&#45;&gt;30</title>
<path fill="none" stroke="#000000" d="M1395,-221.8244C1395,-214.124 1395,-204.9674 1395,-196.4097"/>
<polygon fill="#000000" stroke="#000000" points="1398.5001,-196.4063 1395,-186.4063 1391.5001,-196.4064 1398.5001,-196.4063"/>
</g>
<!-- 31&#45;&gt;27 -->
<g id="edge87" class="edge">
<title>31&#45;&gt;27</title>
<path fill="none" stroke="#000000" d="M1373.1295,-229.0578C1348.7778,-216.882 1309.238,-197.1121 1281.7715,-183.3788"/>
<polygon fill="#000000" stroke="#000000" points="1283.114,-180.137 1272.6045,-178.7953 1279.9835,-186.398 1283.114,-180.137"/>
</g>
<!-- 32 -->
<g id="node41" class="node">
<title>32</title>
<ellipse fill="none" stroke="#000000" cx="315" cy="-239.9931" rx="27" ry="18"/>
<text text-anchor="middle" x="315" y="-236.2931" font-family="Times,serif" font-size="14.00" fill="#000000">32</text>
</g>
<!-- 32&#45;&gt;0 -->
<g id="edge89" class="edge">
<title>32&#45;&gt;0</title>
<path fill="none" stroke="#000000" d="M335.3989,-228.1223C340.36,-225.7106 345.752,-223.4647 351,-221.9931 536.5099,-169.9731 597.4901,-238.013 783,-185.9931 785.132,-185.3952 787.2878,-184.6696 789.4288,-183.857"/>
<polygon fill="#000000" stroke="#000000" points="790.8294,-187.0646 798.6011,-179.8639 788.0352,-180.6464 790.8294,-187.0646"/>
</g>
<!-- 32&#45;&gt;36 -->
<g id="edge91" class="edge">
<title>32&#45;&gt;36</title>
<path fill="none" stroke="#000000" d="M299.7307,-224.7237C289.803,-214.7961 276.6847,-201.6778 265.5637,-190.5567"/>
<polygon fill="#000000" stroke="#000000" points="267.7933,-187.8366 258.2473,-183.2404 262.8436,-192.7864 267.7933,-187.8366"/>
</g>
<!-- 40 -->
<g id="node42" class="node">
<title>40</title>
<ellipse fill="none" stroke="#000000" cx="315" cy="-167.9931" rx="27" ry="18"/>
<text text-anchor="middle" x="315" y="-164.2931" font-family="Times,serif" font-size="14.00" fill="#000000">40</text>
</g>
<!-- 32&#45;&gt;40 -->
<g id="edge90" class="edge">
<title>32&#45;&gt;40</title>
<path fill="none" stroke="#000000" d="M315,-221.8244C315,-214.124 315,-204.9674 315,-196.4097"/>
<polygon fill="#000000" stroke="#000000" points="318.5001,-196.4063 315,-186.4063 311.5001,-196.4064 318.5001,-196.4063"/>
</g>
<!-- 34 -->
<g id="node43" class="node">
<title>34</title>
<ellipse fill="none" stroke="#000000" cx="387" cy="-167.9931" rx="27" ry="18"/>
<text text-anchor="middle" x="387" y="-164.2931" font-family="Times,serif" font-size="14.00" fill="#000000">34</text>
</g>
<!-- 32&#45;&gt;34 -->
<g id="edge92" class="edge">
<title>32&#45;&gt;34</title>
<path fill="none" stroke="#000000" d="M330.2693,-224.7237C340.197,-214.7961 353.3153,-201.6778 364.4363,-190.5567"/>
<polygon fill="#000000" stroke="#000000" points="367.1564,-192.7864 371.7527,-183.2404 362.2067,-187.8366 367.1564,-192.7864"/>
</g>
<!-- 40&#45;&gt;8 -->
<g id="edge119" class="edge">
<title>40&#45;&gt;8</title>
<path fill="none" stroke="#000000" d="M335.8268,-156.0929C340.6795,-153.7436 345.9172,-151.532 351,-149.9931 474.4612,-112.612 516.1672,-153.3899 639,-113.9931 641.2843,-113.2604 643.592,-112.3821 645.8772,-111.4091"/>
<polygon fill="#000000" stroke="#000000" points="647.5325,-114.4968 655.0273,-107.0083 644.4984,-108.1885 647.5325,-114.4968"/>
</g>
<!-- 40&#45;&gt;44 -->
<g id="edge120" class="edge">
<title>40&#45;&gt;44</title>
<path fill="none" stroke="#000000" d="M303.0156,-151.6814C295.9545,-142.0707 286.8844,-129.7256 278.9798,-118.9667"/>
<polygon fill="#000000" stroke="#000000" points="281.6923,-116.7473 272.9508,-110.7609 276.0512,-120.8919 281.6923,-116.7473"/>
</g>
<!-- 42 -->
<g id="node48" class="node">
<title>42</title>
<ellipse fill="none" stroke="#000000" cx="369" cy="-94.4948" rx="27" ry="18"/>
<text text-anchor="middle" x="369" y="-90.7948" font-family="Times,serif" font-size="14.00" fill="#000000">42</text>
</g>
<!-- 40&#45;&gt;42 -->
<g id="edge121" class="edge">
<title>40&#45;&gt;42</title>
<path fill="none" stroke="#000000" d="M326.9844,-151.6814C334.0455,-142.0707 343.1156,-129.7256 351.0202,-118.9667"/>
<polygon fill="#000000" stroke="#000000" points="353.9488,-120.8919 357.0492,-110.7609 348.3077,-116.7473 353.9488,-120.8919"/>
</g>
<!-- 34&#45;&gt;2 -->
<g id="edge99" class="edge">
<title>34&#45;&gt;2</title>
<path fill="none" stroke="#000000" d="M407.8268,-156.0929C412.6795,-153.7436 417.9172,-151.532 423,-149.9931 546.4612,-112.612 588.1672,-153.3899 711,-113.9931 713.2843,-113.2604 715.592,-112.3821 717.8772,-111.4091"/>
<polygon fill="#000000" stroke="#000000" points="719.5325,-114.4968 727.0273,-107.0083 716.4984,-108.1885 719.5325,-114.4968"/>
</g>
<!-- 34&#45;&gt;42 -->
<g id="edge100" class="edge">
<title>34&#45;&gt;42</title>
<path fill="none" stroke="#000000" d="M382.6427,-150.2012C380.5797,-141.7773 378.0684,-131.5234 375.7656,-122.1202"/>
<polygon fill="#000000" stroke="#000000" points="379.1579,-121.258 373.3796,-112.3776 372.3588,-122.9231 379.1579,-121.258"/>
</g>
<!-- 33 -->
<g id="node44" class="node">
<title>33</title>
<ellipse fill="none" stroke="#000000" cx="369" cy="-311.9931" rx="27" ry="18"/>
<text text-anchor="middle" x="369" y="-308.2931" font-family="Times,serif" font-size="14.00" fill="#000000">33</text>
</g>
<!-- 33&#45;&gt;1 -->
<g id="edge93" class="edge">
<title>33&#45;&gt;1</title>
<path fill="none" stroke="#000000" d="M395.6773,-309.0479C444.8471,-303.0998 552.6377,-287.6247 639,-257.9931 640.8837,-257.3468 642.7942,-256.6213 644.7021,-255.8422"/>
<polygon fill="#000000" stroke="#000000" points="646.4022,-258.9153 654.0849,-251.6195 643.5294,-252.5319 646.4022,-258.9153"/>
</g>
<!-- 33&#45;&gt;37 -->
<g id="edge96" class="edge">
<title>33&#45;&gt;37</title>
<path fill="none" stroke="#000000" d="M345.2683,-303.3732C335.915,-300.163 325.0286,-296.6563 315,-293.9931 236.1488,-273.053 212.1684,-284.4702 135,-257.9931 133.1163,-257.3468 131.2058,-256.6213 129.2979,-255.8422"/>
<polygon fill="#000000" stroke="#000000" points="130.4706,-252.5319 119.9151,-251.6195 127.5978,-258.9153 130.4706,-252.5319"/>
</g>
<!-- 33&#45;&gt;32 -->
<g id="edge98" class="edge">
<title>33&#45;&gt;32</title>
<path fill="none" stroke="#000000" d="M356.7466,-295.6552C349.8423,-286.4495 341.0823,-274.7695 333.3715,-264.4884"/>
<polygon fill="#000000" stroke="#000000" points="336.005,-262.1663 327.2049,-256.2663 330.405,-266.3664 336.005,-262.1663"/>
</g>
<!-- 49 -->
<g id="node45" class="node">
<title>49</title>
<ellipse fill="none" stroke="#000000" cx="963" cy="-239.9931" rx="27" ry="18"/>
<text text-anchor="middle" x="963" y="-236.2931" font-family="Times,serif" font-size="14.00" fill="#000000">49</text>
</g>
<!-- 33&#45;&gt;49 -->
<g id="edge94" class="edge">
<title>33&#45;&gt;49</title>
<path fill="none" stroke="#000000" d="M395.6423,-308.8676C427.7311,-305.1413 483.2775,-298.813 531,-293.9931 706.8312,-276.2341 757.0184,-306.3486 927,-257.9931 929.1297,-257.3872 931.2838,-256.6556 933.4235,-255.8385"/>
<polygon fill="#000000" stroke="#000000" points="934.8288,-259.0441 942.5931,-251.8353 932.028,-252.6288 934.8288,-259.0441"/>
</g>
<!-- 41 -->
<g id="node46" class="node">
<title>41</title>
<ellipse fill="none" stroke="#000000" cx="171" cy="-239.9931" rx="27" ry="18"/>
<text text-anchor="middle" x="171" y="-236.2931" font-family="Times,serif" font-size="14.00" fill="#000000">41</text>
</g>
<!-- 33&#45;&gt;41 -->
<g id="edge95" class="edge">
<title>33&#45;&gt;41</title>
<path fill="none" stroke="#000000" d="M344.784,-303.9241C299.6555,-288.8864 207.207,-258.0788 207,-257.9931 205.2085,-257.251 203.3824,-256.4583 201.5502,-255.6347"/>
<polygon fill="#000000" stroke="#000000" points="203.0084,-252.4527 192.4711,-251.35 200.0208,-258.7832 203.0084,-252.4527"/>
</g>
<!-- 35 -->
<g id="node47" class="node">
<title>35</title>
<ellipse fill="none" stroke="#000000" cx="387" cy="-239.9931" rx="27" ry="18"/>
<text text-anchor="middle" x="387" y="-236.2931" font-family="Times,serif" font-size="14.00" fill="#000000">35</text>
</g>
<!-- 33&#45;&gt;35 -->
<g id="edge97" class="edge">
<title>33&#45;&gt;35</title>
<path fill="none" stroke="#000000" d="M373.4494,-294.1953C375.4398,-286.2337 377.8332,-276.6602 380.0511,-267.7888"/>
<polygon fill="#000000" stroke="#000000" points="383.5094,-268.386 382.5394,-257.8356 376.7184,-266.6882 383.5094,-268.386"/>
</g>
<!-- 49&#45;&gt;17 -->
<g id="edge143" class="edge">
<title>49&#45;&gt;17</title>
<path fill="none" stroke="#000000" d="M983.8268,-228.0929C988.6795,-225.7436 993.9172,-223.532 999,-221.9931 1122.4612,-184.612 1163.5388,-223.3741 1287,-185.9931 1288.906,-185.416 1290.8339,-184.7443 1292.755,-184.0062"/>
<polygon fill="#000000" stroke="#000000" points="1294.4097,-187.1028 1302.1732,-179.8932 1291.6082,-180.6879 1294.4097,-187.1028"/>
</g>
<!-- 49&#45;&gt;53 -->
<g id="edge144" class="edge">
<title>49&#45;&gt;53</title>
<path fill="none" stroke="#000000" d="M963,-221.8244C963,-214.124 963,-204.9674 963,-196.4097"/>
<polygon fill="#000000" stroke="#000000" points="966.5001,-196.4063 963,-186.4063 959.5001,-196.4064 966.5001,-196.4063"/>
</g>
<!-- 51 -->
<g id="node49" class="node">
<title>51</title>
<ellipse fill="none" stroke="#000000" cx="891" cy="-167.9931" rx="27" ry="18"/>
<text text-anchor="middle" x="891" y="-164.2931" font-family="Times,serif" font-size="14.00" fill="#000000">51</text>
</g>
<!-- 49&#45;&gt;51 -->
<g id="edge145" class="edge">
<title>49&#45;&gt;51</title>
<path fill="none" stroke="#000000" d="M947.7307,-224.7237C937.803,-214.7961 924.6847,-201.6778 913.5637,-190.5567"/>
<polygon fill="#000000" stroke="#000000" points="915.7933,-187.8366 906.2473,-183.2404 910.8436,-192.7864 915.7933,-187.8366"/>
</g>
<!-- 41&#45;&gt;9 -->
<g id="edge122" class="edge">
<title>41&#45;&gt;9</title>
<path fill="none" stroke="#000000" d="M191.8268,-228.0929C196.6795,-225.7436 201.9172,-223.532 207,-221.9931 330.4612,-184.612 371.5388,-223.3741 495,-185.9931 496.906,-185.416 498.8339,-184.7443 500.755,-184.0062"/>
<polygon fill="#000000" stroke="#000000" points="502.4097,-187.1028 510.1732,-179.8932 499.6082,-180.6879 502.4097,-187.1028"/>
</g>
<!-- 41&#45;&gt;45 -->
<g id="edge123" class="edge">
<title>41&#45;&gt;45</title>
<path fill="none" stroke="#000000" d="M149.1295,-229.0578C124.7778,-216.882 85.238,-197.1121 57.7715,-183.3788"/>
<polygon fill="#000000" stroke="#000000" points="59.114,-180.137 48.6045,-178.7953 55.9835,-186.398 59.114,-180.137"/>
</g>
<!-- 41&#45;&gt;40 -->
<g id="edge125" class="edge">
<title>41&#45;&gt;40</title>
<path fill="none" stroke="#000000" d="M192.8705,-229.0578C217.2222,-216.882 256.762,-197.1121 284.2285,-183.3788"/>
<polygon fill="#000000" stroke="#000000" points="286.0165,-186.398 293.3955,-178.7953 282.886,-180.137 286.0165,-186.398"/>
</g>
<!-- 43 -->
<g id="node50" class="node">
<title>43</title>
<ellipse fill="none" stroke="#000000" cx="171" cy="-167.9931" rx="27" ry="18"/>
<text text-anchor="middle" x="171" y="-164.2931" font-family="Times,serif" font-size="14.00" fill="#000000">43</text>
</g>
<!-- 41&#45;&gt;43 -->
<g id="edge124" class="edge">
<title>41&#45;&gt;43</title>
<path fill="none" stroke="#000000" d="M171,-221.8244C171,-214.124 171,-204.9674 171,-196.4097"/>
<polygon fill="#000000" stroke="#000000" points="174.5001,-196.4063 171,-186.4063 167.5001,-196.4064 174.5001,-196.4063"/>
</g>
<!-- 35&#45;&gt;3 -->
<g id="edge101" class="edge">
<title>35&#45;&gt;3</title>
<path fill="none" stroke="#000000" d="M407.8268,-228.0929C412.6795,-225.7436 417.9172,-223.532 423,-221.9931 546.4612,-184.612 587.5388,-223.3741 711,-185.9931 712.906,-185.416 714.8339,-184.7443 716.755,-184.0062"/>
<polygon fill="#000000" stroke="#000000" points="718.4097,-187.1028 726.1732,-179.8932 715.6082,-180.6879 718.4097,-187.1028"/>
</g>
<!-- 35&#45;&gt;34 -->
<g id="edge104" class="edge">
<title>35&#45;&gt;34</title>
<path fill="none" stroke="#000000" d="M387,-221.8244C387,-214.124 387,-204.9674 387,-196.4097"/>
<polygon fill="#000000" stroke="#000000" points="390.5001,-196.4063 387,-186.4063 383.5001,-196.4064 390.5001,-196.4063"/>
</g>
<!-- 35&#45;&gt;51 -->
<g id="edge102" class="edge">
<title>35&#45;&gt;51</title>
<path fill="none" stroke="#000000" d="M407.3989,-228.1223C412.36,-225.7106 417.752,-223.4647 423,-221.9931 608.5099,-169.9731 669.4901,-238.013 855,-185.9931 857.132,-185.3952 859.2878,-184.6696 861.4288,-183.857"/>
<polygon fill="#000000" stroke="#000000" points="862.8294,-187.0646 870.6011,-179.8639 860.0352,-180.6464 862.8294,-187.0646"/>
</g>
<!-- 35&#45;&gt;43 -->
<g id="edge103" class="edge">
<title>35&#45;&gt;43</title>
<path fill="none" stroke="#000000" d="M366.022,-228.5431C361.1771,-226.1705 355.9808,-223.8356 351,-221.9931 289.128,-199.1051 268.872,-208.881 207,-185.9931 205.1322,-185.3021 203.2341,-184.5419 201.3356,-183.7365"/>
<polygon fill="#000000" stroke="#000000" points="202.5266,-180.4322 191.978,-179.443 199.6074,-186.7944 202.5266,-180.4322"/>
</g>
<!-- 42&#45;&gt;10 -->
<g id="edge126" class="edge">
<title>42&#45;&gt;10</title>
<path fill="none" stroke="#000000" d="M394.4009,-87.4393C444.8598,-73.4236 557.4123,-42.1605 610.3884,-27.4456"/>
<polygon fill="#000000" stroke="#000000" points="611.4548,-30.782 620.1532,-24.7332 609.5813,-24.0373 611.4548,-30.782"/>
</g>
<!-- 51&#45;&gt;19 -->
<g id="edge150" class="edge">
<title>51&#45;&gt;19</title>
<path fill="none" stroke="#000000" d="M911.9046,-156.3357C916.7532,-153.9738 921.9697,-151.6957 927,-149.9931 1019.2137,-118.7814 1134.2113,-103.3353 1187.4375,-97.4406"/>
<polygon fill="#000000" stroke="#000000" points="1187.9623,-100.9045 1197.5312,-96.3563 1187.2145,-93.9445 1187.9623,-100.9045"/>
</g>
<!-- 43&#45;&gt;11 -->
<g id="edge127" class="edge">
<title>43&#45;&gt;11</title>
<path fill="none" stroke="#000000" d="M191.8804,-156.263C196.7303,-153.9049 201.9534,-151.6467 207,-149.9931 234.0538,-141.1283 415.7803,-112.3648 494.6215,-100.1088"/>
<polygon fill="#000000" stroke="#000000" points="495.2503,-103.5532 504.5954,-98.5611 494.1769,-96.636 495.2503,-103.5532"/>
</g>
<!-- 43&#45;&gt;42 -->
<g id="edge128" class="edge">
<title>43&#45;&gt;42</title>
<path fill="none" stroke="#000000" d="M192.4836,-156.6662C197.211,-154.3389 202.231,-151.9917 207,-149.9931 250.1123,-131.9254 301.3783,-115.1159 334.5184,-104.8348"/>
<polygon fill="#000000" stroke="#000000" points="335.6629,-108.1447 344.1922,-101.8596 333.6051,-101.454 335.6629,-108.1447"/>
</g>
<!-- 38 -->
<g id="node51" class="node">
<title>38</title>
<ellipse fill="none" stroke="#000000" cx="243" cy="-239.9931" rx="27" ry="18"/>
<text text-anchor="middle" x="243" y="-236.2931" font-family="Times,serif" font-size="14.00" fill="#000000">38</text>
</g>
<!-- 38&#45;&gt;36 -->
<g id="edge112" class="edge">
<title>38&#45;&gt;36</title>
<path fill="none" stroke="#000000" d="M243,-221.8244C243,-214.124 243,-204.9674 243,-196.4097"/>
<polygon fill="#000000" stroke="#000000" points="246.5001,-196.4063 243,-186.4063 239.5001,-196.4064 246.5001,-196.4063"/>
</g>
<!-- 38&#45;&gt;6 -->
<g id="edge109" class="edge">
<title>38&#45;&gt;6</title>
<path fill="none" stroke="#000000" d="M263.4168,-228.1851C268.3771,-225.7708 273.7644,-223.508 279,-221.9931 433.4619,-177.2995 484.5381,-230.6867 639,-185.9931 641.127,-185.3776 643.279,-184.6388 645.4172,-183.8165"/>
<polygon fill="#000000" stroke="#000000" points="646.828,-187.0196 654.5832,-179.8011 644.0192,-180.6078 646.828,-187.0196"/>
</g>
<!-- 38&#45;&gt;34 -->
<g id="edge111" class="edge">
<title>38&#45;&gt;34</title>
<path fill="none" stroke="#000000" d="M264.8705,-229.0578C289.2222,-216.882 328.762,-197.1121 356.2285,-183.3788"/>
<polygon fill="#000000" stroke="#000000" points="358.0165,-186.398 365.3955,-178.7953 354.886,-180.137 358.0165,-186.398"/>
</g>
<!-- 46 -->
<g id="node52" class="node">
<title>46</title>
<ellipse fill="none" stroke="#000000" cx="99" cy="-167.9931" rx="27" ry="18"/>
<text text-anchor="middle" x="99" y="-164.2931" font-family="Times,serif" font-size="14.00" fill="#000000">46</text>
</g>
<!-- 38&#45;&gt;46 -->
<g id="edge110" class="edge">
<title>38&#45;&gt;46</title>
<path fill="none" stroke="#000000" d="M221.1295,-229.0578C196.7778,-216.882 157.238,-197.1121 129.7715,-183.3788"/>
<polygon fill="#000000" stroke="#000000" points="131.114,-180.137 120.6045,-178.7953 127.9835,-186.398 131.114,-180.137"/>
</g>
<!-- 46&#45;&gt;14 -->
<g id="edge130" class="edge">
<title>46&#45;&gt;14</title>
<path fill="none" stroke="#000000" d="M119.3989,-156.1223C124.36,-153.7106 129.752,-151.4647 135,-149.9931 320.5099,-97.9731 382.3664,-169.0425 567,-113.9931 569.4436,-113.2645 571.9094,-112.3572 574.343,-111.3356"/>
<polygon fill="#000000" stroke="#000000" points="575.9526,-114.4454 583.4556,-106.9651 572.9254,-108.1338 575.9526,-114.4454"/>
</g>
<!-- 46&#45;&gt;44 -->
<g id="edge132" class="edge">
<title>46&#45;&gt;44</title>
<path fill="none" stroke="#000000" d="M120.6186,-156.9701C125.3376,-154.6239 130.32,-152.1922 135,-149.9931 166.6519,-135.1202 203.2803,-119.12 228.8583,-108.139"/>
<polygon fill="#000000" stroke="#000000" points="230.2708,-111.3416 238.0868,-104.189 227.5163,-104.9063 230.2708,-111.3416"/>
</g>
<!-- 46&#45;&gt;42 -->
<g id="edge131" class="edge">
<title>46&#45;&gt;42</title>
<path fill="none" stroke="#000000" d="M119.9427,-156.4457C124.7894,-154.0782 129.9954,-151.7699 135,-149.9931 204.5056,-125.3158 225.3852,-131.6374 297,-113.9931 309.1567,-110.9979 322.4002,-107.4841 334.1758,-104.2706"/>
<polygon fill="#000000" stroke="#000000" points="335.3691,-107.5724 344.082,-101.5445 333.5117,-100.8233 335.3691,-107.5724"/>
</g>
<!-- 39 -->
<g id="node53" class="node">
<title>39</title>
<ellipse fill="none" stroke="#000000" cx="279" cy="-311.9931" rx="27" ry="18"/>
<text text-anchor="middle" x="279" y="-308.2931" font-family="Times,serif" font-size="14.00" fill="#000000">39</text>
</g>
<!-- 39&#45;&gt;37 -->
<g id="edge117" class="edge">
<title>39&#45;&gt;37</title>
<path fill="none" stroke="#000000" d="M254.7416,-303.7714C225.869,-293.7858 176.3615,-276.0296 135,-257.9931 133.2226,-257.218 131.4074,-256.3994 129.5837,-255.5559"/>
<polygon fill="#000000" stroke="#000000" points="131.0584,-252.3816 120.5278,-251.2165 128.0334,-258.6942 131.0584,-252.3816"/>
</g>
<!-- 39&#45;&gt;7 -->
<g id="edge113" class="edge">
<title>39&#45;&gt;7</title>
<path fill="none" stroke="#000000" d="M302.6721,-303.1383C312.0177,-299.8975 322.9143,-296.4313 333,-293.9931 435.2773,-269.2674 466.7328,-289.9068 567,-257.9931 568.8977,-257.3891 570.819,-256.6965 572.7352,-255.9424"/>
<polygon fill="#000000" stroke="#000000" points="574.4079,-259.0299 582.1402,-251.7868 571.5787,-252.6271 574.4079,-259.0299"/>
</g>
<!-- 39&#45;&gt;35 -->
<g id="edge116" class="edge">
<title>39&#45;&gt;35</title>
<path fill="none" stroke="#000000" d="M298.3082,-299.1209C315.3555,-287.7561 340.4019,-271.0585 359.5344,-258.3035"/>
<polygon fill="#000000" stroke="#000000" points="361.4799,-261.213 367.8589,-252.7538 357.5969,-255.3887 361.4799,-261.213"/>
</g>
<!-- 39&#45;&gt;38 -->
<g id="edge118" class="edge">
<title>39&#45;&gt;38</title>
<path fill="none" stroke="#000000" d="M270.2854,-294.5639C266.0403,-286.0737 260.8464,-275.6859 256.1337,-266.2605"/>
<polygon fill="#000000" stroke="#000000" points="259.237,-264.6408 251.6343,-257.2618 252.976,-267.7713 259.237,-264.6408"/>
</g>
<!-- 55 -->
<g id="node54" class="node">
<title>55</title>
<ellipse fill="none" stroke="#000000" cx="747" cy="-239.9931" rx="27" ry="18"/>
<text text-anchor="middle" x="747" y="-236.2931" font-family="Times,serif" font-size="14.00" fill="#000000">55</text>
</g>
<!-- 39&#45;&gt;55 -->
<g id="edge114" class="edge">
<title>39&#45;&gt;55</title>
<path fill="none" stroke="#000000" d="M302.3368,-302.9273C311.7319,-299.6183 322.7515,-296.1598 333,-293.9931 498.1105,-259.0855 548.7795,-304.5173 711,-257.9931 713.1284,-257.3827 715.2815,-256.6476 717.4205,-255.828"/>
<polygon fill="#000000" stroke="#000000" points="718.8284,-259.0324 726.5884,-251.819 716.0238,-252.6188 718.8284,-259.0324"/>
</g>
<!-- 47 -->
<g id="node55" class="node">
<title>47</title>
<ellipse fill="none" stroke="#000000" cx="27" cy="-239.9931" rx="27" ry="18"/>
<text text-anchor="middle" x="27" y="-236.2931" font-family="Times,serif" font-size="14.00" fill="#000000">47</text>
</g>
<!-- 39&#45;&gt;47 -->
<g id="edge115" class="edge">
<title>39&#45;&gt;47</title>
<path fill="none" stroke="#000000" d="M252.8468,-307.3744C211.6602,-299.6769 129.5245,-282.6021 63,-257.9931 61.1322,-257.3021 59.2341,-256.5419 57.3356,-255.7365"/>
<polygon fill="#000000" stroke="#000000" points="58.5266,-252.4322 47.978,-251.443 55.6074,-258.7944 58.5266,-252.4322"/>
</g>
<!-- 55&#45;&gt;23 -->
<g id="edge160" class="edge">
<title>55&#45;&gt;23</title>
<path fill="none" stroke="#000000" d="M767.4168,-228.1851C772.3771,-225.7708 777.7644,-223.508 783,-221.9931 937.4619,-177.2995 988.5381,-230.6867 1143,-185.9931 1145.127,-185.3776 1147.279,-184.6388 1149.4172,-183.8165"/>
<polygon fill="#000000" stroke="#000000" points="1150.828,-187.0196 1158.5832,-179.8011 1148.0192,-180.6078 1150.828,-187.0196"/>
</g>
<!-- 55&#45;&gt;53 -->
<g id="edge162" class="edge">
<title>55&#45;&gt;53</title>
<path fill="none" stroke="#000000" d="M767.978,-228.5431C772.8229,-226.1705 778.0192,-223.8356 783,-221.9931 844.872,-199.1051 865.128,-208.881 927,-185.9931 928.8678,-185.3021 930.7659,-184.5419 932.6644,-183.7365"/>
<polygon fill="#000000" stroke="#000000" points="934.3926,-186.7944 942.022,-179.443 931.4734,-180.4322 934.3926,-186.7944"/>
</g>
<!-- 55&#45;&gt;51 -->
<g id="edge161" class="edge">
<title>55&#45;&gt;51</title>
<path fill="none" stroke="#000000" d="M768.8705,-229.0578C793.2222,-216.882 832.762,-197.1121 860.2285,-183.3788"/>
<polygon fill="#000000" stroke="#000000" points="862.0165,-186.398 869.3955,-178.7953 858.886,-180.137 862.0165,-186.398"/>
</g>
<!-- 47&#45;&gt;15 -->
<g id="edge133" class="edge">
<title>47&#45;&gt;15</title>
<path fill="none" stroke="#000000" d="M47.4168,-228.1851C52.3771,-225.7708 57.7644,-223.508 63,-221.9931 217.4619,-177.2995 268.5381,-230.6867 423,-185.9931 425.127,-185.3776 427.279,-184.6388 429.4172,-183.8165"/>
<polygon fill="#000000" stroke="#000000" points="430.828,-187.0196 438.5832,-179.8011 428.0192,-180.6078 430.828,-187.0196"/>
</g>
<!-- 47&#45;&gt;45 -->
<g id="edge135" class="edge">
<title>47&#45;&gt;45</title>
<path fill="none" stroke="#000000" d="M27,-221.8244C27,-214.124 27,-204.9674 27,-196.4097"/>
<polygon fill="#000000" stroke="#000000" points="30.5001,-196.4063 27,-186.4063 23.5001,-196.4064 30.5001,-196.4063"/>
</g>
<!-- 47&#45;&gt;43 -->
<g id="edge134" class="edge">
<title>47&#45;&gt;43</title>
<path fill="none" stroke="#000000" d="M48.8705,-229.0578C73.2222,-216.882 112.762,-197.1121 140.2285,-183.3788"/>
<polygon fill="#000000" stroke="#000000" points="142.0165,-186.398 149.3955,-178.7953 138.886,-180.137 142.0165,-186.398"/>
</g>
<!-- 47&#45;&gt;46 -->
<g id="edge136" class="edge">
<title>47&#45;&gt;46</title>
<path fill="none" stroke="#000000" d="M42.2693,-224.7237C52.197,-214.7961 65.3153,-201.6778 76.4363,-190.5567"/>
<polygon fill="#000000" stroke="#000000" points="79.1564,-192.7864 83.7527,-183.2404 74.2067,-187.8366 79.1564,-192.7864"/>
</g>
<!-- 48 -->
<g id="node56" class="node">
<title>48</title>
<ellipse fill="none" stroke="#000000" cx="1179" cy="-311.9931" rx="27" ry="18"/>
<text text-anchor="middle" x="1179" y="-308.2931" font-family="Times,serif" font-size="14.00" fill="#000000">48</text>
</g>
<!-- 48&#45;&gt;16 -->
<g id="edge137" class="edge">
<title>48&#45;&gt;16</title>
<path fill="none" stroke="#000000" d="M1205.5272,-308.5667C1234.4091,-304.862 1281.9659,-298.8372 1323,-293.9931 1466.887,-277.0072 1508.0463,-299.0281 1647,-257.9931 1648.91,-257.429 1650.8408,-256.7675 1652.7643,-256.0372"/>
<polygon fill="#000000" stroke="#000000" points="1654.4101,-259.1383 1662.1887,-251.9449 1651.6221,-252.7175 1654.4101,-259.1383"/>
</g>
<!-- 48&#45;&gt;52 -->
<g id="edge140" class="edge">
<title>48&#45;&gt;52</title>
<path fill="none" stroke="#000000" d="M1163.7307,-296.7237C1153.803,-286.7961 1140.6847,-273.6778 1129.5637,-262.5567"/>
<polygon fill="#000000" stroke="#000000" points="1131.7933,-259.8366 1122.2473,-255.2404 1126.8436,-264.7864 1131.7933,-259.8366"/>
</g>
<!-- 48&#45;&gt;32 -->
<g id="edge138" class="edge">
<title>48&#45;&gt;32</title>
<path fill="none" stroke="#000000" d="M1154.2517,-304.5209C1140.4735,-300.6872 1122.9339,-296.3407 1107,-293.9931 940.6059,-269.4777 513.7255,-300.5185 351,-257.9931 349.0225,-257.4763 347.0269,-256.8426 345.0432,-256.1255"/>
<polygon fill="#000000" stroke="#000000" points="345.9338,-252.7005 335.3621,-251.9995 343.1893,-259.14 345.9338,-252.7005"/>
</g>
<!-- 48&#45;&gt;49 -->
<g id="edge142" class="edge">
<title>48&#45;&gt;49</title>
<path fill="none" stroke="#000000" d="M1153.4913,-305.8216C1118.1788,-296.9464 1052.6807,-279.2816 999,-257.9931 997.1488,-257.2589 995.2635,-256.4651 993.3748,-255.6341"/>
<polygon fill="#000000" stroke="#000000" points="994.5848,-252.3362 984.0435,-251.2721 991.6204,-258.6776 994.5848,-252.3362"/>
</g>
<!-- 56 -->
<g id="node57" class="node">
<title>56</title>
<ellipse fill="none" stroke="#000000" cx="1179" cy="-239.9931" rx="27" ry="18"/>
<text text-anchor="middle" x="1179" y="-236.2931" font-family="Times,serif" font-size="14.00" fill="#000000">56</text>
</g>
<!-- 48&#45;&gt;56 -->
<g id="edge139" class="edge">
<title>48&#45;&gt;56</title>
<path fill="none" stroke="#000000" d="M1179,-293.8244C1179,-286.124 1179,-276.9674 1179,-268.4097"/>
<polygon fill="#000000" stroke="#000000" points="1182.5001,-268.4063 1179,-258.4063 1175.5001,-268.4064 1182.5001,-268.4063"/>
</g>
<!-- 50 -->
<g id="node58" class="node">
<title>50</title>
<ellipse fill="none" stroke="#000000" cx="1251" cy="-239.9931" rx="27" ry="18"/>
<text text-anchor="middle" x="1251" y="-236.2931" font-family="Times,serif" font-size="14.00" fill="#000000">50</text>
</g>
<!-- 48&#45;&gt;50 -->
<g id="edge141" class="edge">
<title>48&#45;&gt;50</title>
<path fill="none" stroke="#000000" d="M1194.2693,-296.7237C1204.197,-286.7961 1217.3153,-273.6778 1228.4363,-262.5567"/>
<polygon fill="#000000" stroke="#000000" points="1231.1564,-264.7864 1235.7527,-255.2404 1226.2067,-259.8366 1231.1564,-264.7864"/>
</g>
<!-- 56&#45;&gt;24 -->
<g id="edge163" class="edge">
<title>56&#45;&gt;24</title>
<path fill="none" stroke="#000000" d="M1199.8749,-228.2462C1204.7251,-225.889 1209.9497,-223.6354 1215,-221.9931 1307.5536,-191.8961 1338.4464,-216.09 1431,-185.9931 1432.8939,-185.3772 1434.8123,-184.6754 1436.7262,-183.9144"/>
<polygon fill="#000000" stroke="#000000" points="1438.4066,-186.9978 1446.1251,-179.74 1435.5653,-180.6004 1438.4066,-186.9978"/>
</g>
<!-- 56&#45;&gt;60 -->
<g id="edge165" class="edge">
<title>56&#45;&gt;60</title>
<path fill="none" stroke="#000000" d="M1157.1295,-229.0578C1132.7778,-216.882 1093.238,-197.1121 1065.7715,-183.3788"/>
<polygon fill="#000000" stroke="#000000" points="1067.114,-180.137 1056.6045,-178.7953 1063.9835,-186.398 1067.114,-180.137"/>
</g>
<!-- 56&#45;&gt;40 -->
<g id="edge164" class="edge">
<title>56&#45;&gt;40</title>
<path fill="none" stroke="#000000" d="M1158.64,-227.9784C1153.6773,-225.5726 1148.2748,-223.3655 1143,-221.9931 801.9896,-133.2694 692.0104,-274.7167 351,-185.9931 349.0219,-185.4784 347.0259,-184.8464 345.0419,-184.1305"/>
<polygon fill="#000000" stroke="#000000" points="345.9318,-180.7054 335.36,-180.0078 343.1893,-187.1458 345.9318,-180.7054"/>
</g>
<!-- 58 -->
<g id="node59" class="node">
<title>58</title>
<ellipse fill="none" stroke="#000000" cx="1107" cy="-167.9931" rx="27" ry="18"/>
<text text-anchor="middle" x="1107" y="-164.2931" font-family="Times,serif" font-size="14.00" fill="#000000">58</text>
</g>
<!-- 56&#45;&gt;58 -->
<g id="edge166" class="edge">
<title>56&#45;&gt;58</title>
<path fill="none" stroke="#000000" d="M1163.7307,-224.7237C1153.803,-214.7961 1140.6847,-201.6778 1129.5637,-190.5567"/>
<polygon fill="#000000" stroke="#000000" points="1131.7933,-187.8366 1122.2473,-183.2404 1126.8436,-192.7864 1131.7933,-187.8366"/>
</g>
<!-- 50&#45;&gt;18 -->
<g id="edge146" class="edge">
<title>50&#45;&gt;18</title>
<path fill="none" stroke="#000000" d="M1271.8749,-228.2462C1276.7251,-225.889 1281.9497,-223.6354 1287,-221.9931 1379.5536,-191.8961 1410.4464,-216.09 1503,-185.9931 1504.8939,-185.3772 1506.8123,-184.6754 1508.7262,-183.9144"/>
<polygon fill="#000000" stroke="#000000" points="1510.4066,-186.9978 1518.1251,-179.74 1507.5653,-180.6004 1510.4066,-186.9978"/>
</g>
<!-- 50&#45;&gt;34 -->
<g id="edge147" class="edge">
<title>50&#45;&gt;34</title>
<path fill="none" stroke="#000000" d="M1230.64,-227.9784C1225.6773,-225.5726 1220.2748,-223.3655 1215,-221.9931 873.9896,-133.2694 764.0104,-274.7167 423,-185.9931 421.0219,-185.4784 419.0259,-184.8464 417.0419,-184.1305"/>
<polygon fill="#000000" stroke="#000000" points="417.9318,-180.7054 407.36,-180.0078 415.1893,-187.1458 417.9318,-180.7054"/>
</g>
<!-- 50&#45;&gt;51 -->
<g id="edge149" class="edge">
<title>50&#45;&gt;51</title>
<path fill="none" stroke="#000000" d="M1230.1732,-228.0929C1225.3205,-225.7436 1220.0828,-223.532 1215,-221.9931 1091.5388,-184.612 1050.4612,-223.3741 927,-185.9931 925.094,-185.416 923.1661,-184.7443 921.245,-184.0062"/>
<polygon fill="#000000" stroke="#000000" points="922.3918,-180.6879 911.8268,-179.8932 919.5903,-187.1028 922.3918,-180.6879"/>
</g>
<!-- 50&#45;&gt;58 -->
<g id="edge148" class="edge">
<title>50&#45;&gt;58</title>
<path fill="none" stroke="#000000" d="M1229.1295,-229.0578C1204.7778,-216.882 1165.238,-197.1121 1137.7715,-183.3788"/>
<polygon fill="#000000" stroke="#000000" points="1139.114,-180.137 1128.6045,-178.7953 1135.9835,-186.398 1139.114,-180.137"/>
</g>
<!-- 58&#45;&gt;26 -->
<g id="edge173" class="edge">
<title>58&#45;&gt;26</title>
<path fill="none" stroke="#000000" d="M1128.4977,-156.6995C1133.2242,-154.3702 1138.2402,-152.0137 1143,-149.9931 1187.2515,-131.2071 1200.6543,-132.5557 1245,-113.9931 1247.9931,-112.7402 1251.0807,-111.3736 1254.1513,-109.9643"/>
<polygon fill="#000000" stroke="#000000" points="1255.6604,-113.1224 1263.2005,-105.6794 1252.6646,-106.7958 1255.6604,-113.1224"/>
</g>
<!-- 58&#45;&gt;42 -->
<g id="edge174" class="edge">
<title>58&#45;&gt;42</title>
<path fill="none" stroke="#000000" d="M1086.6228,-156.0433C1081.6608,-153.6348 1076.263,-151.4102 1071,-149.9931 823.3226,-83.3005 750.0058,-141.6347 495,-113.9931 464.7686,-110.7161 430.6996,-105.3414 405.6171,-101.0639"/>
<polygon fill="#000000" stroke="#000000" points="405.9052,-97.5619 395.4551,-99.3072 404.7127,-104.4595 405.9052,-97.5619"/>
</g>
<!-- 54 -->
<g id="node60" class="node">
<title>54</title>
<ellipse fill="none" stroke="#000000" cx="1071" cy="-311.9931" rx="27" ry="18"/>
<text text-anchor="middle" x="1071" y="-308.2931" font-family="Times,serif" font-size="14.00" fill="#000000">54</text>
</g>
<!-- 54&#45;&gt;52 -->
<g id="edge158" class="edge">
<title>54&#45;&gt;52</title>
<path fill="none" stroke="#000000" d="M1079.7146,-294.5639C1083.9597,-286.0737 1089.1536,-275.6859 1093.8663,-266.2605"/>
<polygon fill="#000000" stroke="#000000" points="1097.024,-267.7713 1098.3657,-257.2618 1090.763,-264.6408 1097.024,-267.7713"/>
</g>
<!-- 54&#45;&gt;22 -->
<g id="edge154" class="edge">
<title>54&#45;&gt;22</title>
<path fill="none" stroke="#000000" d="M1095.783,-304.7432C1109.5718,-300.9768 1127.1104,-296.6236 1143,-293.9931 1333.0785,-262.526 1389.4901,-310.013 1575,-257.9931 1577.132,-257.3952 1579.2878,-256.6696 1581.4288,-255.857"/>
<polygon fill="#000000" stroke="#000000" points="1582.8294,-259.0646 1590.6011,-251.8639 1580.0352,-252.6464 1582.8294,-259.0646"/>
</g>
<!-- 54&#45;&gt;38 -->
<g id="edge155" class="edge">
<title>54&#45;&gt;38</title>
<path fill="none" stroke="#000000" d="M1046.2496,-304.5358C1032.4706,-300.7066 1014.9311,-296.3596 999,-293.9931 682.0778,-246.9153 588.8929,-339.3713 279,-257.9931 277.0231,-257.4739 275.028,-256.8385 273.0447,-256.12"/>
<polygon fill="#000000" stroke="#000000" points="273.9359,-252.6951 263.3645,-251.9905 271.1892,-259.1337 273.9359,-252.6951"/>
</g>
<!-- 54&#45;&gt;55 -->
<g id="edge159" class="edge">
<title>54&#45;&gt;55</title>
<path fill="none" stroke="#000000" d="M1045.7895,-305.1663C1032.0237,-301.5713 1014.6423,-297.2465 999,-293.9931 903.7149,-274.175 875.5536,-288.09 783,-257.9931 781.1061,-257.3772 779.1877,-256.6754 777.2738,-255.9144"/>
<polygon fill="#000000" stroke="#000000" points="778.4347,-252.6004 767.8749,-251.74 775.5934,-258.9978 778.4347,-252.6004"/>
</g>
<!-- 54&#45;&gt;50 -->
<g id="edge157" class="edge">
<title>54&#45;&gt;50</title>
<path fill="none" stroke="#000000" d="M1095.2584,-303.7714C1124.131,-293.7858 1173.6385,-276.0296 1215,-257.9931 1216.7774,-257.218 1218.5926,-256.3994 1220.4163,-255.5559"/>
<polygon fill="#000000" stroke="#000000" points="1221.9666,-258.6942 1229.4722,-251.2165 1218.9416,-252.3816 1221.9666,-258.6942"/>
</g>
<!-- 62 -->
<g id="node61" class="node">
<title>62</title>
<ellipse fill="none" stroke="#000000" cx="1035" cy="-239.9931" rx="27" ry="18"/>
<text text-anchor="middle" x="1035" y="-236.2931" font-family="Times,serif" font-size="14.00" fill="#000000">62</text>
</g>
<!-- 54&#45;&gt;62 -->
<g id="edge156" class="edge">
<title>54&#45;&gt;62</title>
<path fill="none" stroke="#000000" d="M1062.2854,-294.5639C1058.0403,-286.0737 1052.8464,-275.6859 1048.1337,-266.2605"/>
<polygon fill="#000000" stroke="#000000" points="1051.237,-264.6408 1043.6343,-257.2618 1044.976,-267.7713 1051.237,-264.6408"/>
</g>
<!-- 62&#45;&gt;30 -->
<g id="edge183" class="edge">
<title>62&#45;&gt;30</title>
<path fill="none" stroke="#000000" d="M1055.8268,-228.0929C1060.6795,-225.7436 1065.9172,-223.532 1071,-221.9931 1194.4612,-184.612 1235.5388,-223.3741 1359,-185.9931 1360.906,-185.416 1362.8339,-184.7443 1364.755,-184.0062"/>
<polygon fill="#000000" stroke="#000000" points="1366.4097,-187.1028 1374.1732,-179.8932 1363.6082,-180.6879 1366.4097,-187.1028"/>
</g>
<!-- 62&#45;&gt;60 -->
<g id="edge186" class="edge">
<title>62&#45;&gt;60</title>
<path fill="none" stroke="#000000" d="M1035,-221.8244C1035,-214.124 1035,-204.9674 1035,-196.4097"/>
<polygon fill="#000000" stroke="#000000" points="1038.5001,-196.4063 1035,-186.4063 1031.5001,-196.4064 1038.5001,-196.4063"/>
</g>
<!-- 62&#45;&gt;46 -->
<g id="edge184" class="edge">
<title>62&#45;&gt;46</title>
<path fill="none" stroke="#000000" d="M1014.6438,-227.9639C1009.6809,-225.5587 1004.2774,-223.3555 999,-221.9931 626.8676,-125.9229 507.1324,-282.0633 135,-185.9931 133.021,-185.4822 131.0242,-184.853 129.0396,-184.1393"/>
<polygon fill="#000000" stroke="#000000" points="129.9285,-180.7141 119.3562,-180.0223 127.1895,-187.156 129.9285,-180.7141"/>
</g>
<!-- 62&#45;&gt;58 -->
<g id="edge185" class="edge">
<title>62&#45;&gt;58</title>
<path fill="none" stroke="#000000" d="M1050.2693,-224.7237C1060.197,-214.7961 1073.3153,-201.6778 1084.4363,-190.5567"/>
<polygon fill="#000000" stroke="#000000" points="1087.1564,-192.7864 1091.7527,-183.2404 1082.2067,-187.8366 1087.1564,-192.7864"/>
</g>
<!-- 57 -->
<g id="node62" class="node">
<title>57</title>
<ellipse fill="none" stroke="#000000" cx="963" cy="-311.9931" rx="27" ry="18"/>
<text text-anchor="middle" x="963" y="-308.2931" font-family="Times,serif" font-size="14.00" fill="#000000">57</text>
</g>
<!-- 57&#45;&gt;25 -->
<g id="edge167" class="edge">
<title>57&#45;&gt;25</title>
<path fill="none" stroke="#000000" d="M987.7909,-304.7901C1001.5821,-301.0379 1019.1204,-296.6833 1035,-293.9931 1209.243,-264.4741 1261.0184,-306.3486 1431,-257.9931 1433.1297,-257.3872 1435.2838,-256.6556 1437.4235,-255.8385"/>
<polygon fill="#000000" stroke="#000000" points="1438.8288,-259.0441 1446.5931,-251.8353 1436.028,-252.6288 1438.8288,-259.0441"/>
</g>
<!-- 57&#45;&gt;61 -->
<g id="edge170" class="edge">
<title>57&#45;&gt;61</title>
<path fill="none" stroke="#000000" d="M941.1295,-301.0578C916.7778,-288.882 877.238,-269.1121 849.7715,-255.3788"/>
<polygon fill="#000000" stroke="#000000" points="851.114,-252.137 840.6045,-250.7953 847.9835,-258.398 851.114,-252.137"/>
</g>
<!-- 57&#45;&gt;49 -->
<g id="edge169" class="edge">
<title>57&#45;&gt;49</title>
<path fill="none" stroke="#000000" d="M963,-293.8244C963,-286.124 963,-276.9674 963,-268.4097"/>
<polygon fill="#000000" stroke="#000000" points="966.5001,-268.4063 963,-258.4063 959.5001,-268.4064 966.5001,-268.4063"/>
</g>
<!-- 57&#45;&gt;41 -->
<g id="edge168" class="edge">
<title>57&#45;&gt;41</title>
<path fill="none" stroke="#000000" d="M938.2471,-304.5522C924.4674,-300.728 906.928,-296.3805 891,-293.9931 589.9423,-248.868 501.3361,-335.6992 207,-257.9931 205.0238,-257.4714 203.0292,-256.8339 201.0463,-256.1139"/>
<polygon fill="#000000" stroke="#000000" points="201.9383,-252.6891 191.3671,-251.9804 199.1891,-259.1266 201.9383,-252.6891"/>
</g>
<!-- 57&#45;&gt;56 -->
<g id="edge172" class="edge">
<title>57&#45;&gt;56</title>
<path fill="none" stroke="#000000" d="M988.5087,-305.8216C1023.8212,-296.9464 1089.3193,-279.2816 1143,-257.9931 1144.8512,-257.2589 1146.7365,-256.4651 1148.6252,-255.6341"/>
<polygon fill="#000000" stroke="#000000" points="1150.3796,-258.6776 1157.9565,-251.2721 1147.4152,-252.3362 1150.3796,-258.6776"/>
</g>
<!-- 59 -->
<g id="node63" class="node">
<title>59</title>
<ellipse fill="none" stroke="#000000" cx="891" cy="-239.9931" rx="27" ry="18"/>
<text text-anchor="middle" x="891" y="-236.2931" font-family="Times,serif" font-size="14.00" fill="#000000">59</text>
</g>
<!-- 57&#45;&gt;59 -->
<g id="edge171" class="edge">
<title>57&#45;&gt;59</title>
<path fill="none" stroke="#000000" d="M947.7307,-296.7237C937.803,-286.7961 924.6847,-273.6778 913.5637,-262.5567"/>
<polygon fill="#000000" stroke="#000000" points="915.7933,-259.8366 906.2473,-255.2404 910.8436,-264.7864 915.7933,-259.8366"/>
</g>
<!-- 59&#45;&gt;27 -->
<g id="edge175" class="edge">
<title>59&#45;&gt;27</title>
<path fill="none" stroke="#000000" d="M911.8268,-228.0929C916.6795,-225.7436 921.9172,-223.532 927,-221.9931 1050.4612,-184.612 1091.5388,-223.3741 1215,-185.9931 1216.906,-185.416 1218.8339,-184.7443 1220.755,-184.0062"/>
<polygon fill="#000000" stroke="#000000" points="1222.4097,-187.1028 1230.1732,-179.8932 1219.6082,-180.6879 1222.4097,-187.1028"/>
</g>
<!-- 59&#45;&gt;51 -->
<g id="edge177" class="edge">
<title>59&#45;&gt;51</title>
<path fill="none" stroke="#000000" d="M891,-221.8244C891,-214.124 891,-204.9674 891,-196.4097"/>
<polygon fill="#000000" stroke="#000000" points="894.5001,-196.4063 891,-186.4063 887.5001,-196.4064 894.5001,-196.4063"/>
</g>
<!-- 59&#45;&gt;43 -->
<g id="edge176" class="edge">
<title>59&#45;&gt;43</title>
<path fill="none" stroke="#000000" d="M870.6299,-228.0169C865.6676,-225.6095 860.2678,-223.392 855,-221.9931 576.2189,-147.9587 485.7811,-260.0274 207,-185.9931 205.0246,-185.4685 203.0306,-184.8288 201.0481,-184.1071"/>
<polygon fill="#000000" stroke="#000000" points="201.9409,-180.6824 191.3701,-179.9693 199.189,-187.1188 201.9409,-180.6824"/>
</g>
<!-- 59&#45;&gt;58 -->
<g id="edge178" class="edge">
<title>59&#45;&gt;58</title>
<path fill="none" stroke="#000000" d="M911.978,-228.5431C916.8229,-226.1705 922.0192,-223.8356 927,-221.9931 988.872,-199.1051 1009.128,-208.881 1071,-185.9931 1072.8678,-185.3021 1074.7659,-184.5419 1076.6644,-183.7365"/>
<polygon fill="#000000" stroke="#000000" points="1078.3926,-186.7944 1086.022,-179.443 1075.4734,-180.4322 1078.3926,-186.7944"/>
</g>
<!-- 63 -->
<g id="node64" class="node">
<title>63</title>
<ellipse fill="none" stroke="#000000" cx="855" cy="-311.9931" rx="27" ry="18"/>
<text text-anchor="middle" x="855" y="-308.2931" font-family="Times,serif" font-size="14.00" fill="#000000">63</text>
</g>
<!-- 63&#45;&gt;61 -->
<g id="edge191" class="edge">
<title>63&#45;&gt;61</title>
<path fill="none" stroke="#000000" d="M846.2854,-294.5639C842.0403,-286.0737 836.8464,-275.6859 832.1337,-266.2605"/>
<polygon fill="#000000" stroke="#000000" points="835.237,-264.6408 827.6343,-257.2618 828.976,-267.7713 835.237,-264.6408"/>
</g>
<!-- 63&#45;&gt;31 -->
<g id="edge187" class="edge">
<title>63&#45;&gt;31</title>
<path fill="none" stroke="#000000" d="M879.783,-304.7432C893.5718,-300.9768 911.1104,-296.6236 927,-293.9931 1117.0785,-262.526 1173.4901,-310.013 1359,-257.9931 1361.132,-257.3952 1363.2878,-256.6696 1365.4288,-255.857"/>
<polygon fill="#000000" stroke="#000000" points="1366.8294,-259.0646 1374.6011,-251.8639 1364.0352,-252.6464 1366.8294,-259.0646"/>
</g>
<!-- 63&#45;&gt;55 -->
<g id="edge189" class="edge">
<title>63&#45;&gt;55</title>
<path fill="none" stroke="#000000" d="M835.6918,-299.1209C818.6445,-287.7561 793.5981,-271.0585 774.4656,-258.3035"/>
<polygon fill="#000000" stroke="#000000" points="776.4031,-255.3887 766.1411,-252.7538 772.5201,-261.213 776.4031,-255.3887"/>
</g>
<!-- 63&#45;&gt;47 -->
<g id="edge188" class="edge">
<title>63&#45;&gt;47</title>
<path fill="none" stroke="#000000" d="M828.1503,-310.0333C782.0902,-306.6807 685.0449,-299.6581 603,-293.9931 363.0386,-277.4244 295.1295,-321.0159 63,-257.9931 60.8631,-257.4129 58.7037,-256.7006 56.56,-255.8977"/>
<polygon fill="#000000" stroke="#000000" points="57.9491,-252.6852 47.3814,-251.927 55.1698,-259.1098 57.9491,-252.6852"/>
</g>
<!-- 63&#45;&gt;62 -->
<g id="edge192" class="edge">
<title>63&#45;&gt;62</title>
<path fill="none" stroke="#000000" d="M879.2584,-303.7714C908.131,-293.7858 957.6385,-276.0296 999,-257.9931 1000.7774,-257.218 1002.5926,-256.3994 1004.4163,-255.5559"/>
<polygon fill="#000000" stroke="#000000" points="1005.9666,-258.6942 1013.4722,-251.2165 1002.9416,-252.3816 1005.9666,-258.6942"/>
</g>
<!-- 63&#45;&gt;59 -->
<g id="edge190" class="edge">
<title>63&#45;&gt;59</title>
<path fill="none" stroke="#000000" d="M863.7146,-294.5639C867.9597,-286.0737 873.1536,-275.6859 877.8663,-266.2605"/>
<polygon fill="#000000" stroke="#000000" points="881.024,-267.7713 882.3657,-257.2618 874.763,-264.6408 881.024,-267.7713"/>
</g>
</g>
</svg>
