<?xml version="1.0" encoding="UTF-8" standalone="no"?>
<!DOCTYPE svg PUBLIC "-//W3C//DTD SVG 1.1//EN"
 "http://www.w3.org/Graphics/SVG/1.1/DTD/svg11.dtd">
<!-- Generated by graphviz version 2.40.1 (20161225.0304)
 -->
<!-- Title: G Pages: 1 -->
<svg width="204pt" height="119pt"
 viewBox="0.00 0.00 204.50 119.00" xmlns="http://www.w3.org/2000/svg" xmlns:xlink="http://www.w3.org/1999/xlink">
<g id="graph0" class="graph" transform="scale(1 1) rotate(0) translate(4 114.9965)">
<title>G</title>
<polygon fill="#ffffff" stroke="transparent" points="-4,4 -4,-114.9965 200.4983,-114.9965 200.4983,4 -4,4"/>
<!-- 19 -->
<g id="node1" class="node">
<title>19</title>
<ellipse fill="#ff0000" stroke="#000000" cx="19.4983" cy="-91.4983" rx="19.4965" ry="19.4965"/>
<text text-anchor="middle" x="19.4983" y="-87.7983" font-family="Times,serif" font-size="14.00" fill="#000000">19</text>
</g>
<!-- 63 -->
<g id="node2" class="node">
<title>63</title>
<ellipse fill="#ff0000" stroke="#000000" cx="76.4983" cy="-91.4983" rx="19.4965" ry="19.4965"/>
<text text-anchor="middle" x="76.4983" y="-87.7983" font-family="Times,serif" font-size="14.00" fill="#000000">63</text>
</g>
<!-- 32 -->
<g id="node3" class="node">
<title>32</title>
<ellipse fill="#ff0000" stroke="#000000" cx="133.4983" cy="-91.4983" rx="19.4965" ry="19.4965"/>
<text text-anchor="middle" x="133.4983" y="-87.7983" font-family="Times,serif" font-size="14.00" fill="#000000">32</text>
</g>
<!-- 40 -->
<g id="node4" class="node">
<title>40</title>
<ellipse fill="none" stroke="#000000" cx="97.4983" cy="-18" rx="27" ry="18"/>
<text text-anchor="middle" x="97.4983" y="-14.3" font-family="Times,serif" font-size="14.00" fill="#000000">40</text>
</g>
<!-- 32&#45;&gt;40 -->
<g id="edge1" class="edge">
<title>32&#45;&gt;40</title>
<path fill="none" stroke="#000000" d="M124.7837,-73.7064C120.4762,-64.9121 115.1917,-54.1233 110.4244,-44.3902"/>
<polygon fill="#000000" stroke="#000000" points="113.4267,-42.563 105.8847,-35.1219 107.1403,-45.6421 113.4267,-42.563"/>
</g>
<!-- 0 -->
<g id="node5" class="node">
<title>0</title>
<ellipse fill="none" stroke="#000000" cx="169.4983" cy="-18" rx="27" ry="18"/>
<text text-anchor="middle" x="169.4983" y="-14.3" font-family="Times,serif" font-size="14.00" fill="#000000">0</text>
</g>
<!-- 32&#45;&gt;0 -->
<g id="edge2" class="edge">
<title>32&#45;&gt;0</title>
<path fill="none" stroke="#000000" d="M142.2129,-73.7064C146.5204,-64.9121 151.8048,-54.1233 156.5722,-44.3902"/>
<polygon fill="#000000" stroke="#000000" points="159.8562,-45.6421 161.1118,-35.1219 153.5698,-42.563 159.8562,-45.6421"/>
</g>
</g>
</svg>
